<svg width="169" height="26" viewBox="0 0 169 26" fill="none" xmlns="http://www.w3.org/2000/svg">
<path d="M137.212 11.1757C137.012 11.1928 136.81 11.2046 136.615 11.2302C136.487 11.2462 136.433 11.1992 136.348 11.1747C136.32 11.1661 136.29 11.1491 136.263 11.1512C136.066 11.1683 135.868 11.1875 135.67 11.2067C135.61 11.2483 135.571 11.3039 135.478 11.3241C135.388 11.3434 135.281 11.3434 135.18 11.353C135.046 11.3647 134.913 11.3765 134.78 11.3871C134.713 11.3925 134.659 11.4128 134.637 11.4512C134.633 11.4576 134.677 11.4736 134.701 11.4832C134.782 11.5152 134.861 11.5515 134.95 11.5761C135.034 11.5996 135.139 11.5612 135.23 11.5911C135.434 11.6583 135.436 11.6572 135.591 11.6444C135.725 11.6327 135.858 11.6199 135.991 11.6113C136.017 11.6092 136.047 11.6252 136.076 11.6338C136.16 11.6572 136.215 11.7106 136.34 11.6903C136.435 11.6743 136.54 11.6711 136.639 11.6626C136.722 11.6935 136.798 11.7288 136.887 11.7533C136.97 11.7768 136.994 11.795 136.95 11.8259C136.909 11.8548 136.853 11.8665 136.778 11.8686C136.711 11.8697 136.645 11.8793 136.578 11.8846C136.544 11.8879 136.512 11.89 136.479 11.8932C136.352 11.9049 136.352 11.9049 136.12 11.8366C136.029 11.8099 135.926 11.8473 135.84 11.8217C135.781 11.8046 135.731 11.779 135.674 11.7608C135.65 11.7533 135.612 11.7523 135.581 11.7544C135.48 11.7619 135.379 11.7672 135.283 11.7811C135.214 11.7907 135.174 11.8206 135.182 11.8505C135.184 11.8622 135.232 11.8793 135.26 11.8804C135.325 11.8825 135.394 11.8676 135.456 11.875C135.517 11.8825 135.579 11.9039 135.624 11.9274C135.714 11.9765 135.817 11.9327 135.904 11.9455C135.995 11.9594 136.07 12.0021 136.156 12.0277C136.179 12.0341 136.221 12.0234 136.255 12.0202C136.354 12.0128 136.453 12.0064 136.552 11.9989C136.635 12.0299 136.724 12.0576 136.798 12.0928C136.933 12.1569 137.079 12.1814 137.254 12.1505C137.353 12.1334 137.45 12.1398 137.529 12.1815C137.61 12.2242 137.702 12.2199 137.805 12.2113C137.9 12.2028 137.997 12.1793 138.094 12.2092C138.304 12.2754 138.306 12.2786 138.554 12.253C138.629 12.2455 138.685 12.2434 138.742 12.2679C138.794 12.2904 138.851 12.3096 138.905 12.3309C139.004 12.3234 139.105 12.316 139.204 12.3074C139.331 12.2957 139.402 12.3106 139.432 12.3704C139.45 12.4067 139.458 12.4398 139.503 12.4644C139.555 12.4943 139.612 12.4932 139.688 12.4847C139.761 12.4772 139.813 12.4654 139.844 12.427C139.856 12.411 139.88 12.396 139.902 12.3832C139.92 12.3736 139.949 12.3587 139.965 12.3608C139.995 12.3651 140.035 12.3768 140.045 12.3907C140.144 12.5199 140.144 12.521 140.245 12.5583C140.356 12.6 140.471 12.6373 140.572 12.6843C140.663 12.7259 140.754 12.7078 140.853 12.7078C140.927 12.7078 140.976 12.7356 140.97 12.7633C140.966 12.7793 140.938 12.8028 140.913 12.8049C140.716 12.8263 140.516 12.8444 140.316 12.8594C140.292 12.8615 140.261 12.8423 140.233 12.8327C140.177 12.8135 140.126 12.7836 140.066 12.7772C140.005 12.7708 139.935 12.7868 139.868 12.7921C139.801 12.7975 139.731 12.8114 139.67 12.8028C139.61 12.7943 139.561 12.7633 139.505 12.743C139.478 12.7334 139.442 12.7195 139.42 12.7227C139.273 12.7484 139.164 12.7131 139.059 12.6662C139.036 12.6565 138.998 12.6501 138.97 12.6523C138.736 12.6704 138.504 12.6918 138.27 12.7121C138.175 12.7206 138.098 12.6832 138.078 12.6202C138.068 12.585 138.048 12.5498 138.048 12.5145C138.048 12.4505 137.937 12.4153 137.856 12.4227C137.723 12.4334 137.587 12.4419 137.456 12.458C137.349 12.4708 137.258 12.458 137.186 12.4195C137.101 12.3758 137.004 12.3843 136.907 12.396C136.835 12.4046 136.814 12.4398 136.818 12.5284C136.822 12.6 136.788 12.6224 136.657 12.6341C136.491 12.6491 136.324 12.664 136.156 12.6758C136.13 12.6779 136.1 12.6597 136.074 12.6501C136.017 12.6309 135.967 12.6 135.906 12.5936C135.846 12.5861 135.775 12.6021 135.708 12.6085C135.642 12.6138 135.571 12.6288 135.511 12.6213C135.45 12.6138 135.4 12.5818 135.345 12.5615C135.319 12.5519 135.287 12.538 135.26 12.5402C135.127 12.5487 134.994 12.5615 134.861 12.5733C134.711 12.5861 134.711 12.5861 134.5 12.5199C134.403 12.49 134.306 12.5135 134.211 12.522C134.11 12.5306 134.015 12.5348 133.936 12.4921C133.884 12.4644 133.825 12.4473 133.763 12.4526C133.595 12.4654 133.43 12.4815 133.262 12.4943C133.234 12.4964 133.196 12.4911 133.174 12.4815C133.067 12.4366 132.962 12.4014 132.812 12.4238C132.683 12.443 132.544 12.4441 132.415 12.4622C132.344 12.4718 132.312 12.506 132.326 12.5327C132.334 12.5466 132.376 12.5626 132.405 12.5626C132.469 12.5637 132.54 12.5476 132.6 12.5541C132.726 12.5669 132.788 12.6565 132.952 12.632C133.048 12.617 133.149 12.6117 133.25 12.6074C133.277 12.6064 133.305 12.6267 133.333 12.6373C133.414 12.6662 133.484 12.7035 133.601 12.6843C133.698 12.6694 133.801 12.6651 133.9 12.6566C134.058 12.6427 134.058 12.6437 134.261 12.7089C134.358 12.7398 134.455 12.7153 134.55 12.7078C134.621 12.7025 134.687 12.6918 134.744 12.7067C134.83 12.7291 134.893 12.7804 135 12.7772C135.101 12.774 135.2 12.759 135.301 12.7537C135.363 12.7505 135.422 12.7676 135.472 12.7964C135.525 12.8252 135.581 12.838 135.65 12.8316C135.749 12.8231 135.85 12.8124 135.951 12.8071C135.979 12.806 136.011 12.8156 136.037 12.8242C136.094 12.8434 136.148 12.8658 136.203 12.8861C136.302 12.8797 136.403 12.8775 136.5 12.8647C136.574 12.8551 136.627 12.8594 136.687 12.8808C136.764 12.9096 136.827 12.9608 136.952 12.9363C137.014 12.9245 137.087 12.9277 137.149 12.917C137.226 12.9032 137.279 12.9085 137.333 12.9405C137.436 13.0014 137.565 13.0025 137.698 12.979C137.844 12.9533 137.953 12.9832 138.062 13.0302C138.177 13.0793 138.177 13.0783 138.265 13.1968C138.292 13.2309 138.366 13.2469 138.429 13.2405C138.534 13.2299 138.625 13.2352 138.701 13.2758C138.782 13.3195 138.879 13.3142 138.978 13.3025C139.109 13.2864 139.24 13.2726 139.347 13.3345C139.4 13.3644 139.456 13.3718 139.527 13.3644C139.727 13.3452 139.928 13.3334 140.124 13.3099C140.243 13.295 140.312 13.3291 140.393 13.358C140.502 13.3975 140.621 13.4327 140.621 13.5171C140.621 13.5309 140.649 13.5469 140.673 13.5576C140.726 13.58 140.782 13.5993 140.837 13.6206C140.917 13.6526 140.996 13.6793 141.107 13.6622C141.204 13.6484 141.307 13.6441 141.406 13.6345C141.505 13.6249 141.595 13.6195 141.684 13.6601C141.787 13.706 141.896 13.7498 142.013 13.784C142.096 13.8085 142.205 13.7669 142.294 13.8C142.348 13.8203 142.401 13.8437 142.459 13.8608C142.483 13.8683 142.522 13.863 142.554 13.8608C142.621 13.8566 142.689 13.8534 142.754 13.8427C142.829 13.8309 142.885 13.8331 142.942 13.8576C142.994 13.88 143.047 13.911 143.107 13.9174C143.198 13.927 143.299 13.8843 143.39 13.9334C143.436 13.958 143.495 13.9815 143.555 13.9889C143.616 13.9964 143.686 13.9804 143.751 13.9815C143.779 13.9815 143.813 13.9986 143.83 14.0124C143.84 14.0199 143.826 14.0402 143.811 14.0509C143.793 14.0637 143.767 14.0808 143.741 14.0829C143.541 14.1021 143.341 14.1181 143.141 14.1363C143.022 14.147 143.022 14.147 142.782 14.0797C142.726 14.0637 142.663 14.0669 142.592 14.0743C142.498 14.084 142.401 14.1021 142.302 14.0829C142.173 14.0103 142.013 14.0039 141.844 14.0316C141.773 14.0434 141.708 14.0434 141.656 14.0231C141.545 13.9825 141.428 13.9452 141.329 13.8971C141.252 13.8598 141.216 13.8566 141.184 13.9078C141.174 13.9238 141.164 13.9409 141.166 13.9558C141.178 14.0092 141.2 14.0615 141.212 14.1149C141.216 14.1299 141.2 14.147 141.19 14.163C141.158 14.2078 141.115 14.2046 141.045 14.1672C140.974 14.1299 140.889 14.1053 140.776 14.1224C140.679 14.1373 140.574 14.1352 140.477 14.1512C140.328 14.1747 140.223 14.1405 140.116 14.0946C140.094 14.085 140.056 14.0797 140.027 14.0818C139.727 14.1064 139.428 14.1341 139.127 14.1587C139.063 14.164 139.004 14.148 138.954 14.1192C138.901 14.0904 138.843 14.0754 138.778 14.0808C138.512 14.1032 138.245 14.1235 137.979 14.1512C137.87 14.163 137.783 14.1491 137.708 14.1117C137.652 14.084 137.599 14.0754 137.529 14.0786C137.452 14.0818 137.398 14.0925 137.359 14.1235C137.323 14.1534 137.349 14.1715 137.43 14.195C137.517 14.2206 137.597 14.2537 137.68 14.2836C137.747 14.2793 137.813 14.2708 137.878 14.2719C137.906 14.2719 137.932 14.2911 137.961 14.3018C138.041 14.3327 138.116 14.3637 138.231 14.3466C138.328 14.3317 138.431 14.3284 138.53 14.3188C138.667 14.3071 138.667 14.3071 138.889 14.3744C138.946 14.3914 139.006 14.3904 139.079 14.3808C139.141 14.3733 139.206 14.3882 139.25 14.4203C139.268 14.4331 139.262 14.4544 139.224 14.5249C139.224 14.5772 139.266 14.5537 139.281 14.5196C139.303 14.4704 139.26 14.4544 139.18 14.4811C139.123 14.5003 139.095 14.5281 139.109 14.5505C139.117 14.5623 139.156 14.5772 139.224 14.5249C139.402 14.4608 139.537 14.4534 139.666 14.4363C139.743 14.4267 139.791 14.4309 139.852 14.4587C139.924 14.4918 139.997 14.527 140.116 14.5099C140.245 14.4907 140.383 14.4886 140.514 14.4726C140.635 14.4576 140.697 14.5046 140.774 14.5324C140.867 14.5655 140.97 14.5281 141.055 14.5473C141.143 14.5665 141.206 14.6135 141.309 14.622C141.458 14.5932 141.553 14.6466 141.666 14.6818C141.755 14.7085 141.86 14.685 141.955 14.6733C142.062 14.6605 142.15 14.6722 142.225 14.7107C142.31 14.7544 142.405 14.7448 142.502 14.7352C142.728 14.7139 142.736 14.7107 142.867 14.7694C142.962 14.8121 143.053 14.7929 143.147 14.7875C143.23 14.8164 143.311 14.8473 143.398 14.8729C143.42 14.8793 143.462 14.8687 143.497 14.8655C143.595 14.8569 143.696 14.8484 143.795 14.8398C143.862 14.8345 143.933 14.8185 143.993 14.8249C144.054 14.8324 144.104 14.8633 144.159 14.8836C144.213 14.9039 144.27 14.9242 144.322 14.9455C144.403 14.9776 144.479 15.0043 144.592 14.9882C144.689 14.9744 144.79 14.9701 144.891 14.9605C145.018 14.9487 145.014 14.9519 145.25 15.016C145.378 15.0512 145.509 15.0085 145.638 15.0043C145.702 15.0021 145.765 15.0139 145.809 15.0448C145.828 15.0576 145.822 15.079 145.828 15.0971C145.495 15.126 145.16 15.1505 144.831 15.1857C144.703 15.1996 144.637 15.1612 144.568 15.1292C144.455 15.0779 144.306 15.1526 144.199 15.0865C144.134 15.047 144.041 15.0245 143.93 15.0438C143.866 15.0544 143.797 15.0534 143.731 15.063C143.561 15.0865 143.406 15.0875 143.271 15.0139C143.224 14.9882 143.158 14.9744 143.109 14.9498C143.053 14.9231 142.998 14.9082 142.932 14.9135C142.631 14.9391 142.332 14.9647 142.033 14.9925C142.007 14.9946 141.981 15.0107 141.959 15.0224C141.902 15.0523 141.92 15.0758 142.011 15.095C142.041 15.1014 142.066 15.1153 142.094 15.126C142.148 15.1462 142.199 15.1783 142.259 15.1857C142.32 15.1932 142.391 15.1783 142.457 15.1729C142.524 15.1676 142.594 15.1516 142.655 15.158C142.716 15.1655 142.766 15.1964 142.823 15.2156C142.849 15.2253 142.881 15.2413 142.907 15.2402C143.041 15.2338 143.172 15.222 143.305 15.2124C143.388 15.2413 143.458 15.2829 143.557 15.2925C143.62 15.2989 143.686 15.2872 143.751 15.2893C143.779 15.2904 143.815 15.3064 143.83 15.3203C143.838 15.3288 143.811 15.3502 143.791 15.3608C143.715 15.4014 143.61 15.3939 143.515 15.4067C143.412 15.4206 143.319 15.4164 143.24 15.3747C143.188 15.347 143.129 15.332 143.065 15.3374C142.897 15.3512 142.732 15.3673 142.564 15.379C142.536 15.3811 142.502 15.3715 142.475 15.364C142.263 15.2989 142.263 15.2968 142.114 15.3107C141.894 15.3309 141.894 15.3309 141.747 15.2744C141.719 15.2637 141.688 15.2434 141.664 15.2445C141.43 15.2616 141.198 15.2786 140.966 15.3032C140.889 15.3107 140.837 15.3107 140.78 15.2829C140.732 15.2594 140.675 15.2327 140.615 15.2263C140.552 15.2199 140.483 15.2359 140.417 15.2413C140.35 15.2466 140.28 15.2605 140.221 15.2519C140.161 15.2434 140.108 15.2135 140.056 15.1922C140.001 15.1697 139.943 15.1708 139.868 15.1793C139.638 15.2039 139.636 15.2007 139.408 15.1345C139.382 15.127 139.347 15.1185 139.319 15.1206C139.151 15.1334 138.986 15.1495 138.818 15.1623C138.754 15.1676 138.691 15.1537 138.647 15.1228C138.629 15.11 138.635 15.0886 138.623 15.047C138.609 15.0373 138.625 15.0544 138.629 15.0704C138.659 15.0683 138.695 15.0704 138.718 15.0619C138.774 15.0416 138.802 15.0149 138.788 14.9925C138.78 14.9808 138.742 14.9658 138.718 14.9658C138.673 14.9658 138.635 14.9893 138.623 15.047C138.496 15.0822 138.36 15.0897 138.229 15.1067C138.152 15.1174 138.104 15.1121 138.043 15.0843C137.971 15.0502 137.896 15.0171 137.777 15.0341C137.648 15.0534 137.511 15.0566 137.377 15.0715C137.224 15.0886 137.157 14.9925 137.028 14.9946C136.895 14.9968 136.762 15.0149 136.629 15.0277C136.512 15.0384 136.512 15.0384 136.269 14.969C136.181 14.9434 136.076 14.9808 135.989 14.9541C135.93 14.937 135.88 14.9114 135.823 14.8932C135.799 14.8857 135.761 14.8857 135.731 14.8879C135.563 14.9007 135.394 14.9092 135.232 14.9327C135.048 14.9605 134.909 14.9306 134.778 14.8676C134.613 14.8793 134.445 14.8857 134.282 14.906C134.163 14.921 134.094 14.8858 134.013 14.8569C133.985 14.8473 133.961 14.8313 133.93 14.827C133.9 14.8228 133.864 14.8313 133.831 14.8345C133.698 14.8462 133.561 14.8516 133.432 14.8708C133.272 14.8954 133.212 14.8078 133.089 14.7971C133.006 14.8494 132.962 14.921 132.798 14.9263C132.665 14.9306 132.532 14.9477 132.399 14.9594C132.332 14.9648 132.265 14.9712 132.199 14.9765C132.092 14.9861 132.041 15.0277 132.064 15.0918C132.076 15.127 132.086 15.1623 132.096 15.1975C132.116 15.2605 132.066 15.3139 131.981 15.3213C131.747 15.3416 131.515 15.363 131.281 15.3811C131.218 15.3865 131.157 15.3683 131.107 15.3395C131.054 15.3107 130.996 15.2978 130.931 15.3032C130.697 15.3235 130.465 15.3448 130.231 15.363C130.205 15.3651 130.171 15.3544 130.144 15.3459C130.088 15.3267 130.033 15.3043 129.979 15.284C129.846 15.2936 129.714 15.3 129.583 15.3128C129.371 15.332 129.371 15.3331 129.216 15.2744C129.188 15.2637 129.159 15.2434 129.133 15.2445C129.032 15.2487 128.933 15.2594 128.832 15.269C128.536 15.2968 128.536 15.2968 128.449 15.2648C128.37 15.2349 128.3 15.1986 128.181 15.2156C128.051 15.2349 127.914 15.2413 127.781 15.2519C127.682 15.2594 127.583 15.268 127.484 15.2701C127.458 15.2712 127.43 15.2509 127.402 15.2402C127.321 15.2071 127.242 15.1804 127.131 15.1986C127.067 15.2092 126.998 15.2114 126.931 15.2167C126.758 15.2317 126.758 15.2317 126.473 15.1676C126.445 15.1612 126.411 15.1537 126.382 15.1569C126.148 15.1761 125.916 15.1975 125.682 15.2156C125.654 15.2178 125.62 15.2114 125.591 15.206C125.272 15.1441 125.272 15.1441 124.933 15.174C124.804 15.1847 124.8 15.189 124.665 15.1324C124.604 15.1078 124.554 15.0961 124.483 15.1035C124.217 15.1292 123.948 15.1462 123.684 15.1761C123.565 15.189 123.496 15.1569 123.416 15.1281C123.387 15.1185 123.357 15.0971 123.333 15.0982C123.067 15.1185 122.8 15.143 122.534 15.1633C122.509 15.1655 122.479 15.1441 122.451 15.1345C122.396 15.1153 122.344 15.0865 122.283 15.0801C122.221 15.0736 122.152 15.0897 122.084 15.095C121.916 15.1089 121.916 15.1078 121.722 15.0448C121.696 15.0363 121.662 15.0245 121.636 15.0267C121.369 15.048 121.101 15.0662 120.836 15.0971C120.685 15.1142 120.582 15.0833 120.475 15.0384C120.453 15.0288 120.415 15.0245 120.386 15.0267C120.086 15.0512 119.787 15.079 119.486 15.1035C119.424 15.1089 119.363 15.0907 119.313 15.063C119.232 15.0192 119.137 15.0245 119.036 15.0341C118.804 15.0566 118.802 15.0555 118.665 15.0043C118.637 14.9936 118.612 14.9797 118.582 14.9744C118.554 14.969 118.518 14.9722 118.487 14.9744C118.354 14.985 118.221 14.9968 118.088 15.0085C117.954 15.0203 117.819 15.0267 117.688 15.0448C117.527 15.0672 117.45 14.9978 117.337 14.9658C117.171 14.9797 117.002 14.9882 116.838 15.0107C116.713 15.0277 116.655 14.9808 116.572 14.9562C116.544 14.9477 116.513 14.9295 116.487 14.9317C116.186 14.9551 115.886 14.9808 115.587 15.0096C115.514 15.016 115.466 15.0075 115.405 14.9818C115.27 14.9242 115.264 14.9263 115.038 14.9477C114.939 14.9573 114.844 14.9658 114.76 14.922C114.685 14.8825 114.594 14.8729 114.487 14.8857C114.356 14.9018 114.221 14.9103 114.088 14.921C113.954 14.9327 113.821 14.9487 113.688 14.9541C113.581 14.9594 113.516 14.9092 113.432 14.8836C113.405 14.8761 113.369 14.8751 113.339 14.8772C113.206 14.8868 113.068 14.8943 112.939 14.9124C112.782 14.9349 112.695 14.8761 112.584 14.842C112.56 14.8345 112.519 14.8388 112.489 14.842C112.255 14.8612 112.023 14.8825 111.789 14.9028C111.706 14.874 111.621 14.8462 111.539 14.8174C111.405 14.8281 111.272 14.8398 111.139 14.8505C111.038 14.8591 110.935 14.8623 110.84 14.8783C110.717 14.8996 110.657 14.8494 110.574 14.8249C110.546 14.8163 110.515 14.7982 110.489 14.8003C110.322 14.8121 110.154 14.8249 109.989 14.843C109.831 14.8612 109.769 14.7651 109.639 14.7662C109.506 14.7672 109.369 14.7811 109.24 14.8003C109.091 14.8228 108.986 14.7886 108.879 14.7427C108.856 14.7331 108.818 14.7277 108.79 14.7299C108.622 14.7427 108.457 14.7587 108.289 14.7715C108.261 14.7736 108.227 14.7683 108.199 14.7619C107.88 14.6989 107.88 14.6978 107.74 14.7107C107.642 14.7192 107.541 14.7299 107.44 14.7352C107.411 14.7373 107.377 14.7277 107.351 14.7192C107.141 14.6541 107.141 14.653 106.99 14.6658C106.856 14.6776 106.723 14.6893 106.59 14.701C106.507 14.6722 106.422 14.6445 106.34 14.6156C106.174 14.6295 106.005 14.6402 105.841 14.6594C105.765 14.6679 105.714 14.6647 105.656 14.6381C105.583 14.606 105.51 14.5687 105.389 14.5868C105.26 14.606 105.123 14.6082 104.992 14.6242C104.834 14.6434 104.77 14.5462 104.642 14.5473C104.509 14.5484 104.372 14.5623 104.243 14.5815C104.094 14.6039 103.989 14.5697 103.882 14.5238C103.859 14.5142 103.821 14.5089 103.793 14.511C103.426 14.542 103.06 14.5729 102.693 14.606C102.467 14.6263 102.467 14.6274 102.037 14.5687C102.007 14.5644 101.974 14.5601 101.944 14.5623C101.811 14.5719 101.674 14.5793 101.545 14.5975C101.387 14.6199 101.3 14.5623 101.189 14.527C101.165 14.5195 101.127 14.5238 101.094 14.526C100.994 14.5334 100.895 14.543 100.794 14.5516C100.661 14.5633 100.527 14.5751 100.394 14.5868C100.311 14.5591 100.227 14.5302 100.144 14.5025C99.9784 14.5163 99.8089 14.5238 99.6454 14.5462C99.5203 14.5633 99.4618 14.5185 99.379 14.4929C99.3508 14.4843 99.3205 14.4662 99.2943 14.4672C98.9936 14.4907 98.6929 14.5153 98.3942 14.5452C98.2711 14.558 98.2145 14.5099 98.1318 14.4854C98.1035 14.4779 98.0713 14.464 98.045 14.4662C97.8452 14.4811 97.6454 14.4993 97.4456 14.5174C97.3326 14.5281 97.3326 14.5281 97.0864 14.4619C97.0581 14.4544 97.0258 14.4469 96.9976 14.4491C96.3639 14.5025 95.7322 14.5591 95.0984 14.6124C95.0339 14.6178 94.9754 14.6018 94.9249 14.5729C94.8724 14.5441 94.8139 14.5292 94.7493 14.5345C94.4829 14.5569 94.2145 14.5772 93.9501 14.605C93.8411 14.6167 93.7543 14.6028 93.6797 14.5655C93.6231 14.5377 93.5707 14.527 93.5001 14.5334C93.3669 14.5462 93.2337 14.5569 93.1005 14.5687C92.9673 14.5804 92.8341 14.5922 92.7009 14.6039C92.5677 14.6156 92.4324 14.622 92.3013 14.6402C92.1398 14.6626 92.0611 14.5964 91.9501 14.5633C91.7503 14.5793 91.5505 14.5954 91.3527 14.6124C91.0863 14.6349 90.8199 14.6594 90.5535 14.6808C90.5293 14.6829 90.499 14.6637 90.4708 14.6541C90.388 14.6274 90.3275 14.59 90.2043 14.6018C89.607 14.6583 89.0056 14.7064 88.4062 14.7619C88.281 14.7736 88.2265 14.7277 88.1418 14.7032C88.1135 14.6957 88.0812 14.6808 88.055 14.6829C87.722 14.7096 87.389 14.7395 87.056 14.7683C86.9208 14.78 86.9208 14.78 86.6947 14.7139C86.6685 14.7064 86.6342 14.6968 86.6059 14.6989C86.172 14.7352 85.7401 14.7736 85.3062 14.811C85.2416 14.8163 85.1831 14.8014 85.1306 14.7726C85.0802 14.7438 85.0196 14.7277 84.9571 14.7331C84.5575 14.7672 84.1558 14.8003 83.7583 14.8377C83.6513 14.8484 83.5625 14.8388 83.4858 14.8003C83.4313 14.7726 83.3768 14.7608 83.3082 14.7672C82.7088 14.8195 82.1094 14.8697 81.51 14.9253C81.3949 14.9359 81.3142 14.9156 81.2416 14.8804C81.1831 14.8527 81.1326 14.8473 81.0599 14.8516C80.9832 14.8569 80.9368 14.8687 80.8945 14.9007C80.84 14.9423 80.8057 14.9946 80.6765 14.9978C80.5433 15.001 80.4081 15.0139 80.2769 15.032C80.1518 15.0502 80.0932 15.0021 80.0145 14.9733C79.956 14.953 79.9015 14.9498 79.8268 14.9594C79.7582 14.968 79.7158 14.9861 79.6755 15.0203C79.5867 15.0929 79.5786 15.0929 79.4696 15.047C79.4111 15.0224 79.3586 15.0032 79.294 15.0075C79.0276 15.0288 78.7612 15.0523 78.4948 15.0768C78.3414 15.0907 78.3394 15.0929 78.2244 15.0395C78.1679 15.0128 78.1134 15 78.0468 15.0064C77.3142 15.0704 76.5816 15.1324 75.849 15.1996C75.736 15.2103 75.6593 15.1879 75.5785 15.1559C75.5523 15.1452 75.5261 15.1302 75.4958 15.126C75.4655 15.1217 75.4312 15.126 75.3989 15.1281C74.8661 15.174 74.3313 15.2178 73.8005 15.269C73.6794 15.2808 73.6149 15.2466 73.5321 15.2189C73.5039 15.2092 73.4796 15.1943 73.4493 15.19C73.4191 15.1868 73.3827 15.1943 73.3505 15.1975C72.8177 15.2434 72.2829 15.2872 71.7521 15.3384C71.6249 15.3502 71.5704 15.3053 71.4877 15.2818C71.4594 15.2733 71.4292 15.2573 71.4029 15.2594C71.2354 15.2712 71.0699 15.2872 70.9024 15.301C70.5028 15.3363 70.1032 15.3694 69.7036 15.4057C69.5502 15.4196 69.4836 15.3245 69.3544 15.3288C69.1869 15.3341 69.0214 15.3555 68.8539 15.3704C68.7207 15.3822 68.5875 15.3929 68.4543 15.4057C68.3232 15.4174 68.3231 15.4174 67.9962 15.3555C67.9679 15.3502 67.9336 15.3427 67.9054 15.3448C67.4392 15.3843 66.971 15.4238 66.5068 15.4665C66.3998 15.4761 66.311 15.4708 66.2343 15.4313C66.1798 15.4035 66.1233 15.3897 66.0567 15.3961C65.3564 15.4569 64.6581 15.5178 63.9578 15.5776C63.9316 15.5797 63.8973 15.569 63.871 15.5605C63.8145 15.5413 63.76 15.5189 63.7055 15.4986C63.6652 15.5231 63.6127 15.5455 63.5865 15.5733C63.5502 15.6107 63.5017 15.6213 63.425 15.6277C63.3483 15.6342 63.2999 15.632 63.2394 15.6043C63.1667 15.5701 63.092 15.5434 62.973 15.5541C62.2404 15.6213 61.5077 15.6822 60.7751 15.7484C60.654 15.7591 60.5976 15.7121 60.5128 15.6875C60.4845 15.6801 60.4522 15.6683 60.426 15.6705C60.1253 15.695 59.8266 15.7217 59.5259 15.7473C58.6924 15.8199 57.8589 15.8893 57.0274 15.9662C56.876 15.9801 56.7731 15.9534 56.6661 15.9075C56.6439 15.8979 56.6056 15.8925 56.5773 15.8947C55.4108 15.995 54.2443 16.0964 53.0798 16.1979C53.0172 16.2032 52.9567 16.1861 52.9062 16.1584C52.8537 16.1295 52.7952 16.1156 52.7307 16.121C52.1979 16.1669 51.6651 16.2128 51.1323 16.2598C50.9991 16.2715 50.997 16.2726 50.8598 16.2213C50.8315 16.2107 50.8013 16.1904 50.7791 16.1925C50.7327 16.1979 50.6882 16.2245 50.656 16.2608C50.6237 16.2993 50.5732 16.31 50.4985 16.3174C50.4218 16.3249 50.3714 16.3217 50.3129 16.2961C50.2382 16.2641 50.1696 16.2331 50.0485 16.2438C48.5167 16.3804 46.9849 16.5117 45.4531 16.6473C45.3299 16.658 45.2734 16.6132 45.1887 16.5886C45.1604 16.5811 45.1322 16.5705 45.1019 16.5683C45.0696 16.5662 45.0353 16.5726 45.003 16.5758C42.5045 16.7925 40.006 17.0103 37.5075 17.227C37.3581 17.2399 37.3601 17.2399 37.1967 17.3381C37.1765 17.3498 37.1502 17.3658 37.122 17.368C36.3571 17.4363 35.5902 17.5025 34.8233 17.5687C34.4903 17.5975 34.1573 17.6274 33.8243 17.6552C33.7052 17.6648 33.7052 17.6648 33.4206 17.7801C33.3964 17.7897 33.3681 17.8025 33.3399 17.8046C32.0079 17.921 30.6759 18.0374 29.3419 18.1516C29.2369 18.1602 29.1522 18.1794 29.1037 18.2306C29.0694 18.2669 29.025 18.2883 28.9584 18.2947C28.026 18.3758 27.0936 18.458 26.1592 18.537C26.0482 18.5466 25.9816 18.5765 25.9271 18.6214C25.9089 18.6363 25.8928 18.6534 25.8665 18.6641C25.8423 18.6737 25.806 18.6769 25.7757 18.6801C24.9765 18.7495 24.1773 18.821 23.3761 18.8872C23.2571 18.8968 23.2086 18.9363 23.1501 18.978C23.1299 18.9918 23.1157 19.0111 23.0895 19.0207C23.0633 19.0292 23.0249 19.0292 22.9926 19.0313C22.3266 19.089 21.6607 19.1477 20.9947 19.2054C20.8655 19.2 20.8372 19.2619 20.7747 19.2993C20.7525 19.3121 20.7363 19.3292 20.7101 19.3377C20.6819 19.3463 20.6455 19.3452 20.6112 19.3473C20.0784 19.3933 19.5456 19.4424 19.0108 19.4851C18.8877 19.4947 18.8634 19.5491 18.7968 19.5865C18.7746 19.5982 18.7525 19.6164 18.7262 19.6196C18.3932 19.6506 18.0602 19.6794 17.7272 19.7071C17.6162 19.7167 17.6162 19.7157 17.4205 19.8214C17.3983 19.8331 17.372 19.8459 17.3437 19.8491C16.8452 19.894 16.3447 19.9367 15.8442 19.9805C15.7797 19.9858 15.7353 20.0114 15.703 20.0477C15.6707 20.084 15.6243 20.1075 15.5597 20.1128C15.1601 20.1481 14.7605 20.1844 14.3609 20.2164C14.2499 20.2249 14.1772 20.2516 14.1288 20.2997C14.0925 20.336 14.0481 20.3541 13.9774 20.3605C13.5778 20.3947 13.1782 20.4321 12.7766 20.462C12.6595 20.4705 12.599 20.5068 12.5505 20.5516C12.5122 20.5879 12.4678 20.6007 12.3931 20.6071C11.6605 20.6691 10.9259 20.731 10.1953 20.7993C10.0722 20.8111 10.0096 20.7737 9.92892 20.747C9.81388 20.7096 9.70695 20.6691 9.70695 20.5858C9.70695 20.573 9.67263 20.558 9.64841 20.5474C9.46879 20.4673 9.46879 20.4673 9.44053 20.3819C9.42439 20.3296 9.40623 20.2762 9.3921 20.2228C9.36586 20.1353 9.30126 20.1128 9.11558 20.1289C9.04898 20.1342 8.98239 20.1417 8.91579 20.1459C8.81689 20.1534 8.74223 20.1182 8.72407 20.0541C8.71398 20.0189 8.70189 19.9837 8.69179 19.9484C8.7927 19.9399 8.79066 19.9388 8.96826 19.8096C9.04293 19.7552 9.04297 19.7552 8.89967 19.7007C8.84518 19.6805 8.7927 19.658 8.73417 19.6388C8.70793 19.6303 8.67363 19.6249 8.64538 19.6271C8.47787 19.6399 8.31239 19.6548 8.14689 19.6698C7.88049 19.6933 7.88046 19.6933 7.61002 19.5844C7.58782 19.5758 7.55351 19.5598 7.55755 19.5513C7.57975 19.5118 7.63423 19.4947 7.70285 19.4904C7.80376 19.484 7.90265 19.4733 8.00154 19.4648C8.06814 19.4594 8.13474 19.453 8.20134 19.4477C8.2639 19.4071 8.32852 19.3676 8.38705 19.326C8.47988 19.2619 8.47985 19.2598 8.3527 19.215C8.27198 19.1851 8.1852 19.1584 8.10245 19.1306C8.00356 19.1392 7.90265 19.1488 7.80376 19.1562C7.67863 19.1658 7.62817 19.1456 7.59588 19.0762C7.56763 19.0153 7.60194 18.963 7.69881 18.9502C7.7977 18.9374 7.89058 18.9288 7.94103 18.8744C7.98947 18.8221 8.07422 18.8018 8.17917 18.7975C8.24577 18.7943 8.31237 18.7868 8.37897 18.7804C8.46575 18.7719 8.51218 18.7175 8.49402 18.6566C8.48393 18.6171 8.46374 18.584 8.38503 18.5755C8.03588 18.5381 8.03182 18.5392 7.85826 18.4666C7.84211 18.4601 7.83003 18.4409 7.83609 18.4313C7.84618 18.4153 7.86838 18.3918 7.8926 18.3886C8.12469 18.3651 8.35677 18.3438 8.58886 18.3278C8.66556 18.3224 8.72207 18.3149 8.74831 18.2754C8.78464 18.221 8.76849 18.1708 8.69785 18.1335C8.67565 18.1217 8.6393 18.1068 8.61508 18.1078C8.34868 18.1271 8.0843 18.1516 7.8179 18.1708C7.79369 18.173 7.74931 18.1548 7.73922 18.1409C7.71903 18.1153 7.74929 18.0811 7.81992 18.0694C7.91276 18.0534 8.00761 18.0523 8.07018 17.9989C8.15696 17.9231 8.26391 17.8537 8.36078 17.7811C8.37693 17.7683 8.4032 17.7438 8.39715 17.7416C8.34669 17.7181 8.28816 17.7 8.23568 17.6776C8.14688 17.6402 8.14686 17.5879 8.16705 17.5377C8.18319 17.4972 8.24374 17.4811 8.31841 17.4811C8.3507 17.4811 8.39106 17.4811 8.4173 17.4715C8.48592 17.448 8.50812 17.4181 8.47381 17.3957C8.45363 17.3829 8.41732 17.3648 8.39311 17.3669C7.96121 17.4021 7.52727 17.4363 7.0974 17.4801C6.97025 17.4929 6.91176 17.4523 6.83507 17.4235C6.77654 17.4011 6.72202 17.3925 6.64937 17.4085C6.58075 17.4235 6.51417 17.415 6.47179 17.3797C6.43748 17.3509 6.49801 17.3263 6.66149 17.2986C6.69176 17.2932 6.72605 17.29 6.74825 17.2794C6.98236 17.1641 6.98236 17.163 7.14381 17.148C7.30123 17.1342 7.30127 17.1331 7.38401 17.0712C7.42236 17.0424 7.46471 17.0135 7.50103 16.9836C7.51516 16.9719 7.53941 16.9505 7.53134 16.9441C7.48694 16.911 7.42637 16.9036 7.35573 16.911C7.19831 16.9292 7.01267 16.9142 6.92992 17.0157C6.89763 17.0541 6.84717 17.0648 6.77452 17.0712C6.04393 17.1331 5.31333 17.1993 4.58072 17.2591C4.46165 17.2687 4.40719 17.3082 4.36077 17.352C4.32041 17.3883 4.276 17.3989 4.19931 17.4053C4.12262 17.4117 4.06204 17.415 4.01764 17.3797C3.9914 17.3584 4.01361 17.3285 4.07416 17.2986C4.16094 17.2559 4.14478 17.2025 4.11653 17.1523C4.09635 17.1192 4.03379 17.0957 3.96719 17.0979C3.8683 17.1021 3.77347 17.1139 3.69072 17.0712C3.64228 17.0466 3.58173 17.0295 3.52724 17.0082C3.42229 16.9644 3.31734 16.9196 3.17001 16.9484C3.0691 16.9377 2.99847 16.8993 2.91774 16.8694C2.78252 16.8203 2.77041 16.8128 2.86728 16.7605C2.97627 16.7018 2.89149 16.6249 2.95203 16.5672C3.01661 16.5053 3.10544 16.4509 3.18415 16.3932C3.20434 16.3783 3.22251 16.3644 3.24269 16.3495C3.19627 16.3281 3.1539 16.3014 3.09941 16.2865C3.02877 16.2673 2.99244 16.2438 2.99648 16.1776C2.98235 16.168 2.98836 16.1925 3.00451 16.1989C3.02267 16.2053 3.0671 16.2 3.0893 16.1925C3.14581 16.1722 3.17404 16.1455 3.15991 16.1231C3.15184 16.1114 3.11352 16.0964 3.0893 16.0964C3.0449 16.0964 3.00656 16.1199 2.99446 16.1776C2.76842 16.2213 2.53427 16.2427 2.30016 16.2598C2.27594 16.2619 2.24569 16.2406 2.21743 16.2299C2.1246 16.1936 2.12459 16.1947 1.85213 16.184C1.82388 16.1829 1.78555 16.168 1.77142 16.153C1.71289 16.0879 1.71493 16.0164 1.68667 15.947C1.73915 15.9021 1.79158 15.8584 1.84607 15.8146C1.95505 15.726 2.09636 15.648 2.18112 15.5509C2.16296 15.4986 2.13873 15.4463 2.22753 15.4035C2.47981 15.3502 2.47781 15.3502 2.54642 15.2989C2.74219 15.1537 2.93592 15.0075 3.13976 14.8644C3.19425 14.827 3.19426 14.8067 3.09739 14.7907C3.06711 14.7865 3.03478 14.7854 3.00249 14.7875C2.90158 14.795 2.80067 14.8142 2.70178 14.8099C2.60289 14.8067 2.53023 14.7598 2.44951 14.7309C2.36676 14.701 2.28402 14.6701 2.20127 14.6391C2.10642 14.6423 2.01158 14.6722 1.91673 14.6242C1.84407 14.5868 1.75326 14.5601 1.67051 14.5292C1.73308 14.448 1.85015 14.3861 1.94097 14.3146C2.02371 14.2494 2.02569 14.2505 2.24769 14.2003C2.35263 14.1768 2.38896 14.0562 2.30016 14.021C2.1932 13.9783 2.0802 13.9388 1.97122 13.8982C1.87637 13.9014 1.77951 13.9302 1.68869 13.8822C1.61806 13.8459 1.53731 13.8213 1.42026 13.8352C1.22248 13.8587 1.02066 13.8704 0.820864 13.8897C0.752245 13.8961 0.677551 13.8918 0.647278 13.8555C0.627096 13.8299 0.685628 13.7946 0.752228 13.7872C0.853137 13.7765 0.943946 13.7637 0.9944 13.7103C1.04284 13.6569 1.13163 13.6409 1.23657 13.6334C1.26483 13.6313 1.29714 13.6185 1.31127 13.6057C1.38392 13.5437 1.46466 13.4904 1.62006 13.4925C1.68464 13.4711 1.71893 13.4444 1.69875 13.4188C1.68664 13.4049 1.64428 13.3868 1.62006 13.3889C1.45255 13.3996 1.28504 13.4103 1.12157 13.4295C1.04488 13.4381 0.986322 13.4402 0.937885 13.4082C0.903576 13.3868 0.921738 13.358 0.98632 13.327C1.04283 13.3003 1.05899 13.2694 1.05496 13.2331C1.04486 13.1487 0.984307 13.1242 0.790561 13.1295C0.651307 13.1338 0.616995 13.1199 0.586723 13.0473C0.57865 13.0302 0.558503 13.0067 0.572631 12.995C0.659413 12.9224 0.715926 12.8327 0.879399 12.7985C0.943981 12.7857 1.01257 12.7857 1.05294 12.758C1.0933 12.7302 1.12964 12.6982 1.17203 12.6715C1.2245 12.6395 1.26079 12.6096 1.23657 12.5893C1.19621 12.553 1.13165 12.5498 1.05698 12.5626C0.992394 12.5733 0.923778 12.5743 0.857177 12.5807C0.738104 12.5925 0.641253 12.5647 0.627126 12.5178C0.58878 12.3939 0.548405 12.2711 0.514095 12.1473C0.510059 12.1323 0.520122 12.1131 0.536268 12.1003C0.592777 12.0555 0.653346 12.0128 0.711874 11.969C0.780492 11.9188 0.889492 11.9284 0.982329 11.9188C1.11351 11.9049 1.11347 11.906 1.28905 11.8035C1.35767 11.7629 1.47675 11.779 1.54738 11.7427C1.56958 11.7309 1.60389 11.7117 1.59784 11.701C1.58976 11.6871 1.54942 11.6765 1.51915 11.6701C1.49089 11.6636 1.45659 11.6605 1.42632 11.6637C1.05901 11.6946 0.693728 11.7277 0.326418 11.7576C0.263854 11.7629 0.195234 11.7395 0.173034 11.7064C0.150834 11.6754 0.156868 11.638 0.152832 11.6028C0.211359 11.559 0.277934 11.5185 0.328389 11.4715C0.366734 11.4352 0.411142 11.4192 0.487833 11.417C0.588743 11.4138 0.687644 11.401 0.800662 11.3914C1.01055 11.2355 1.2164 11.0722 1.44243 10.9163C1.53325 10.8533 1.51109 10.7893 1.52925 10.722C1.54741 10.6601 1.68262 10.6697 1.77344 10.6516C1.8461 10.6366 1.87028 10.6024 1.84203 10.5789C1.82588 10.5651 1.78958 10.549 1.76132 10.549C1.69472 10.549 1.62812 10.5587 1.56152 10.564C1.49492 10.5693 1.41824 10.5661 1.36374 10.5843C1.31127 10.6014 1.27694 10.6377 1.24263 10.6686C1.20429 10.7028 1.15387 10.7145 1.07718 10.7167C0.978286 10.7188 0.879401 10.7284 0.78051 10.7359C0.671528 10.6942 0.558486 10.6537 0.45354 10.6099C0.433358 10.6014 0.4293 10.5768 0.431318 10.5608C0.435355 10.5192 0.40509 10.4935 0.338489 10.4733C0.28198 10.4562 0.235558 10.4316 0.183085 10.4103C0.223449 10.3814 0.267865 10.3537 0.300156 10.3227C0.370792 10.2576 0.459602 10.2106 0.612985 10.2128C0.67353 10.1711 0.721953 10.1199 0.800662 10.091C0.875335 10.0633 1.00249 10.091 1.059 10.028C1.08725 9.99709 1.12966 9.96186 1.18415 9.94905C1.27093 9.92876 1.38395 9.93945 1.4344 9.87966C1.46467 9.8455 1.50906 9.81453 1.56758 9.80599C1.63418 9.79638 1.70278 9.79425 1.75122 9.77397C1.77746 9.76329 1.80572 9.74621 1.80572 9.73126C1.80572 9.72165 1.76538 9.7067 1.73713 9.70029C1.71089 9.69282 1.67654 9.68748 1.64627 9.68962C1.54536 9.69603 1.44647 9.70777 1.34556 9.71417C1.31731 9.71631 1.28503 9.70884 1.25475 9.70243C1.16595 9.68535 1.172 9.664 1.24263 9.62556C1.31327 9.5882 1.36375 9.54015 1.42228 9.49637C1.48686 9.4889 1.56758 9.49211 1.61198 9.47182C1.68665 9.43872 1.73911 9.39068 1.79966 9.34904C1.86626 9.34264 1.93487 9.34051 1.99743 9.32876C2.02367 9.32449 2.03579 9.301 2.05799 9.28712C2.09835 9.26043 2.13269 9.222 2.18718 9.20919C2.27598 9.18997 2.38496 9.19744 2.43743 9.13872C2.46771 9.10456 2.51411 9.06827 2.57062 9.06613C2.72804 9.06186 2.79464 9.00313 2.87536 8.94761C2.93591 8.90598 3.06508 8.92733 3.13168 8.8857C3.17608 8.859 3.20839 8.8259 3.25279 8.80028C3.27095 8.7896 3.30928 8.78427 3.33956 8.78107C3.50505 8.76506 3.67255 8.75331 3.83804 8.73623C3.86428 8.73302 3.88852 8.71702 3.9087 8.7042C3.95108 8.67645 3.97729 8.63801 4.02976 8.61986C4.08223 8.60171 4.1569 8.60171 4.22148 8.59637C4.42935 8.58036 4.44551 8.58462 4.54037 8.49387C4.61706 8.42021 4.80478 8.47252 4.86734 8.39138C4.90367 8.34441 4.97024 8.30598 5.08931 8.30064C5.25682 8.29317 5.42231 8.27288 5.58982 8.259C5.73916 8.24619 5.73715 8.24618 5.89861 8.14689C5.97126 8.10205 6.07825 8.10847 6.1731 8.09993C6.27401 8.09138 6.36684 8.07858 6.41527 8.0252C6.46371 7.97288 6.5525 7.95579 6.65543 7.94832C6.75028 7.94084 6.85727 7.94619 6.93194 7.90349C7.11358 7.80099 7.11156 7.79992 7.23871 7.78924C7.43851 7.77216 7.6383 7.75508 7.83811 7.73693C7.97131 7.72519 8.11055 7.72305 8.23568 7.69957C8.3265 7.68248 8.36685 7.6227 8.42538 7.58106C8.59087 7.56505 8.75635 7.54903 8.92185 7.53408C9.15394 7.51273 9.38804 7.49352 9.62215 7.47323C9.72306 7.43266 9.73722 7.34298 9.90675 7.33871C10.0077 7.33657 10.1065 7.3227 10.2075 7.31416C10.375 7.29921 10.5405 7.27999 10.708 7.27252C10.8351 7.26718 10.8573 7.20952 10.9239 7.17322C10.9461 7.16041 10.9663 7.14227 10.9925 7.13906C11.2549 7.10917 11.5253 7.10276 11.7816 7.05899C11.8078 7.05472 11.8321 7.0323 11.8381 7.01628C11.8422 7.00774 11.8078 6.99174 11.7856 6.98426C11.7594 6.97572 11.7251 6.96718 11.6969 6.96932C10.8633 7.04085 10.0299 7.11345 9.19634 7.18498C9.07929 7.19565 9.07929 7.19458 8.79472 7.31202C8.77051 7.32163 8.74222 7.3323 8.71195 7.3355C8.57875 7.34831 8.44353 7.3558 8.31235 7.37181C8.20539 7.38462 8.11662 7.3718 8.03992 7.33337C7.98543 7.30561 7.9289 7.29707 7.86028 7.29921C7.78359 7.30241 7.73316 7.31416 7.68876 7.34298C7.63023 7.38249 7.59995 7.43373 7.47684 7.4444C6.90973 7.49031 6.34259 7.54156 5.77749 7.59067C5.69879 7.57572 5.66044 7.5533 5.68063 7.52661C5.69273 7.5106 5.71696 7.48925 5.74118 7.48711C5.97327 7.46469 6.20737 7.44548 6.43947 7.42412C6.47176 7.42092 6.51615 7.42304 6.53431 7.41237C6.62312 7.36433 6.65544 7.28639 6.82295 7.28105C6.91982 7.27785 7.0187 7.26184 7.11154 7.24689C7.13777 7.24262 7.162 7.2202 7.16805 7.20419C7.17007 7.19565 7.13778 7.17963 7.11356 7.17215C7.02476 7.14119 6.92185 7.17857 6.83305 7.15722C6.80278 7.14974 6.76037 7.13906 6.75431 7.12625C6.75028 7.11451 6.78459 7.09529 6.80881 7.08355C6.83101 7.07287 6.86127 7.06326 6.89154 7.06006C7.15794 7.03551 7.42438 7.00988 7.69078 6.99066C7.79976 6.98319 7.87644 6.9565 7.92487 6.90738C7.9612 6.87109 8.0056 6.85187 8.07422 6.84654C8.54042 6.80703 9.00661 6.76326 9.47483 6.72696C9.59188 6.71842 9.65245 6.68319 9.70089 6.63729C9.73923 6.60099 9.78364 6.58817 9.85831 6.58177C10.5263 6.52625 11.1903 6.46433 11.8583 6.41095C11.9814 6.40134 12.0178 6.35543 12.0803 6.31593C12.1025 6.30205 12.1166 6.28497 12.1449 6.27643C12.1731 6.26789 12.2095 6.26895 12.2438 6.26681C12.7766 6.2209 13.3094 6.1718 13.8442 6.1291C13.9694 6.11949 13.9935 6.0661 14.0581 6.02873C14.0803 6.01699 14.1005 5.99778 14.1268 5.99457C14.5264 5.95827 14.9259 5.92411 15.3256 5.88888C15.592 5.86539 15.8583 5.8419 16.1247 5.81948C16.2559 5.80881 16.2559 5.80773 16.4335 5.70631C16.4537 5.69456 16.482 5.68068 16.5082 5.67748C17.2751 5.60915 18.04 5.54404 18.8069 5.47678C18.8715 5.47144 18.9179 5.44687 18.9502 5.41057C18.9825 5.37427 19.029 5.34972 19.0915 5.34438C19.6909 5.291 20.2903 5.23869 20.8917 5.18851C21.0007 5.17997 21.0774 5.15435 21.1258 5.1063C21.1621 5.07 21.2065 5.05079 21.2752 5.04545C21.8746 4.99421 22.474 4.93975 23.0754 4.89064C23.1905 4.88103 23.2469 4.84474 23.3035 4.80203C23.3236 4.78709 23.3398 4.76253 23.364 4.76039C23.6627 4.7305 23.9594 4.69954 24.2601 4.67925C24.3852 4.67071 24.4276 4.62587 24.4781 4.58316C24.5184 4.549 24.5648 4.53726 24.6415 4.53299C24.809 4.52338 24.9745 4.50524 25.138 4.48709C25.1622 4.48389 25.1925 4.4604 25.1945 4.44545C25.1986 4.41769 25.1521 4.39847 25.0754 4.38886C24.2762 4.45826 23.475 4.52765 22.6758 4.59704C22.5446 4.60879 22.5446 4.60879 22.367 4.71022C22.3469 4.72196 22.3186 4.73584 22.2903 4.73905C21.5234 4.80631 20.7585 4.8725 19.9916 4.93976C19.927 4.9451 19.8806 4.96965 19.8483 5.00595C19.816 5.04225 19.7696 5.06681 19.707 5.07214C18.9744 5.1362 18.2418 5.20133 17.5072 5.26218C17.3982 5.27073 17.3216 5.29527 17.2731 5.34438C17.2368 5.38068 17.1924 5.3999 17.1238 5.40524C16.4235 5.46503 15.7252 5.52801 15.0228 5.58567C14.9522 5.591 14.8997 5.56004 14.9038 5.53122C14.9058 5.51627 14.936 5.49172 14.9602 5.48959C15.3255 5.45436 15.6888 5.41805 16.0562 5.39136C16.1793 5.38282 16.2156 5.33585 16.2781 5.29634C16.2983 5.28246 16.3145 5.26431 16.3407 5.25684C16.369 5.2483 16.4053 5.24937 16.4396 5.24724C17.3054 5.17144 18.1712 5.09457 19.039 5.02304C19.1642 5.01236 19.1884 4.96004 19.2529 4.92267C19.2751 4.90986 19.2953 4.89065 19.3216 4.88852C19.588 4.86289 19.8544 4.84047 20.1208 4.81805C20.587 4.77748 21.0532 4.73691 21.5214 4.69634C21.6566 4.68459 21.6566 4.68459 21.8302 4.58423C21.8503 4.57249 21.8786 4.55755 21.9049 4.55542C23.138 4.44759 24.3711 4.33976 25.6042 4.23299C25.6688 4.22766 25.7152 4.2031 25.7475 4.1668C25.7798 4.13157 25.8262 4.10595 25.8888 4.09954C27.5558 3.95434 29.2208 3.80914 30.8878 3.66608C30.9968 3.65647 31.0735 3.63405 31.1219 3.58387C31.1562 3.54757 31.2026 3.52836 31.2713 3.52195C33.1038 3.36288 34.9363 3.2038 36.7708 3.04366C38.0039 2.9369 39.2371 2.828 40.4702 2.72337C40.5832 2.71376 40.6437 2.68066 40.7002 2.63689C40.7184 2.62194 40.7366 2.59738 40.7608 2.59525C41.0252 2.56856 41.2895 2.54401 41.5539 2.51945C41.6367 2.54828 41.7194 2.57604 41.8021 2.60487C41.8647 2.5643 41.9253 2.52266 41.9878 2.48209C42.3874 2.45113 42.781 2.40308 43.1846 2.38814C43.2109 2.38707 43.2391 2.40736 43.2673 2.41803C43.455 2.48529 43.562 2.47995 43.6811 2.39027C43.7235 2.35824 43.7598 2.32942 43.8244 2.32408C44.0242 2.30486 44.226 2.29205 44.4238 2.26963C44.5308 2.25789 44.6195 2.26856 44.6962 2.30699C44.7507 2.33475 44.8073 2.3465 44.8739 2.3401C45.2412 2.30807 45.6065 2.2771 45.9738 2.24294C46 2.2408 46.0242 2.22265 46.0444 2.20984C46.0868 2.18208 46.1231 2.15219 46.1635 2.12337C46.218 2.14152 46.2785 2.1554 46.3229 2.17889C46.3794 2.20664 46.4319 2.20664 46.5086 2.19916C47.9738 2.06998 49.441 1.944 50.9062 1.81375C51.0313 1.80308 51.0858 1.84792 51.1706 1.87141C51.1989 1.87995 51.2271 1.89062 51.2574 1.89276C51.2897 1.89489 51.324 1.88849 51.3563 1.88529C52.4562 1.7892 53.5561 1.69418 54.656 1.59809C54.8013 1.58528 54.8013 1.58528 55.0173 1.65147C55.0435 1.66001 55.0778 1.66962 55.1061 1.66642C55.6066 1.62478 56.1071 1.57995 56.6056 1.53724C56.6701 1.5319 56.7247 1.54898 56.7832 1.57354C56.8982 1.62158 56.9063 1.62158 56.991 1.55112C57.0314 1.51803 57.0738 1.49773 57.1404 1.48812C57.213 1.47745 57.2716 1.48066 57.3281 1.49988C57.4088 1.52657 57.4674 1.5714 57.5905 1.55966C58.1233 1.50948 58.6581 1.46785 59.1889 1.4166C59.3099 1.40486 59.3745 1.44115 59.4553 1.46784C59.4835 1.47745 59.5097 1.4924 59.54 1.4956C59.5703 1.49881 59.6066 1.49133 59.6389 1.48812C60.3049 1.43047 60.9729 1.3739 61.6369 1.31197C61.762 1.30023 61.8165 1.34613 61.9013 1.36962C61.9295 1.37816 61.9618 1.39311 61.9881 1.39098C62.3877 1.35788 62.7893 1.32264 63.1889 1.28741C63.3322 1.2746 63.3322 1.27566 63.5501 1.34079C63.5764 1.34933 63.6107 1.35787 63.639 1.35574C64.1052 1.31624 64.5734 1.27567 65.0396 1.2351C65.1829 1.22228 65.1829 1.22229 65.5966 1.2778C65.6269 1.28207 65.6592 1.28849 65.6894 1.28635C66.2222 1.24044 66.757 1.1956 67.2898 1.14649C67.3968 1.13688 67.4856 1.14542 67.5623 1.18385C67.6168 1.21161 67.6733 1.22336 67.7399 1.21695C68.3393 1.16464 68.9407 1.11446 69.5381 1.05895C69.6532 1.04827 69.7278 1.07175 69.8085 1.10271C69.8348 1.11339 69.861 1.12834 69.8913 1.13261C69.9216 1.13688 69.9559 1.1326 69.9882 1.1294C70.5876 1.07709 71.189 1.02798 71.7864 0.971396C71.9075 0.959652 71.972 0.995949 72.0528 1.02264C72.081 1.03225 72.1113 1.05147 72.1355 1.0504C72.3696 1.03225 72.6037 1.01624 72.8358 0.98955C72.9609 0.974603 73.0154 1.02371 73.1002 1.04719C73.1285 1.05467 73.1607 1.07069 73.187 1.06855C73.6875 1.02692 74.188 0.983146 74.6865 0.938306C74.7572 0.9319 74.8096 0.9415 74.8661 0.969258C74.9408 1.00663 75.0276 1.02157 75.1366 1.00983C75.3687 0.985273 75.6028 0.968196 75.8369 0.947911C75.9741 0.936167 75.9741 0.936171 76.3939 0.991687C76.4242 0.995958 76.4565 1.00236 76.4867 1.00022C76.8863 0.96606 77.2879 0.932965 77.6855 0.895599C77.7925 0.884922 77.8813 0.894528 77.958 0.932963C78.0125 0.960721 78.067 0.972471 78.1356 0.966065C78.5029 0.934037 78.8682 0.902005 79.2355 0.869977C79.3687 0.858233 79.5019 0.837943 79.6351 0.837943C79.732 0.83901 79.8026 0.890254 79.8894 0.915877C79.9136 0.923351 79.954 0.914819 79.9863 0.912684C80.4525 0.872115 80.9207 0.834744 81.3849 0.788836C81.506 0.777092 81.5706 0.813389 81.6513 0.84008C81.6795 0.849689 81.7098 0.868907 81.734 0.867839C81.9015 0.856095 82.067 0.84008 82.2345 0.8262C82.4343 0.809118 82.6361 0.796307 82.8339 0.772819C82.9954 0.753602 83.0559 0.846482 83.1851 0.849685C83.284 0.852888 83.3849 0.834741 83.4838 0.8262C83.6836 0.809118 83.8834 0.789903 84.0832 0.774956C84.1538 0.769618 84.2083 0.752529 84.2305 0.714095C84.2346 0.706621 84.2003 0.690614 84.1781 0.681005C83.9096 0.572107 83.9096 0.572102 83.6392 0.59559C83.4717 0.610537 83.3062 0.625486 83.1387 0.638297C83.1104 0.640433 83.0781 0.631892 83.0499 0.625486C82.9691 0.607337 82.9772 0.585986 83.0458 0.547552C83.1145 0.509118 83.1669 0.462146 83.2254 0.418374C83.3082 0.446132 83.389 0.47388 83.4717 0.501638C83.5383 0.4963 83.6049 0.489904 83.6715 0.484566C84.0045 0.456808 84.3375 0.42798 84.6705 0.402357C84.6947 0.400221 84.725 0.421577 84.7532 0.432253C84.8339 0.463214 84.9066 0.489898 85.0237 0.478154C85.3224 0.447193 85.6231 0.424773 85.9218 0.398082C86.0529 0.386338 86.0529 0.386339 86.283 0.452532C86.3093 0.460005 86.3436 0.468547 86.3718 0.466411C86.6725 0.441856 86.9712 0.415169 87.2719 0.389546C87.3365 0.384208 87.3991 0.398086 87.4455 0.429047C87.4637 0.441859 87.4596 0.463207 87.5363 0.638297C87.7744 0.780291 87.9379 0.765352 88.1034 0.752541C88.1741 0.747202 88.2366 0.741859 88.283 0.720507C88.3072 0.708763 88.3375 0.691678 88.3375 0.677799C88.3375 0.667123 88.2931 0.650038 88.2649 0.647902C88.0651 0.62655 87.8754 0.671396 87.6796 0.681005C87.5888 0.685276 87.5101 0.647908 87.4939 0.587054C87.4899 0.569972 87.4838 0.551823 87.4778 0.534741C87.4717 0.517659 87.4677 0.49951 87.4617 0.482428C87.3829 0.47709 87.3365 0.496304 87.3022 0.532604C87.274 0.562497 87.2336 0.596661 87.1791 0.612676C87.1246 0.629757 87.0499 0.62656 86.9833 0.631898C86.9187 0.637237 86.8481 0.651114 86.7876 0.643641C86.727 0.6351 86.6786 0.604133 86.6221 0.584916C86.5958 0.575308 86.5635 0.561434 86.5373 0.563569C86.3052 0.581719 86.0752 0.599861 85.8451 0.623349C85.724 0.636161 85.6634 0.591327 85.5868 0.563569C85.5262 0.542216 85.4656 0.547548 85.4555 0.596659C85.4293 0.714097 85.5222 0.763205 85.728 0.740785C85.8975 0.721568 86.0509 0.718375 86.1841 0.790973C86.2023 0.800582 86.2447 0.804851 86.2709 0.802716C86.4364 0.789904 86.5999 0.773888 86.7653 0.761077C86.7956 0.758942 86.8279 0.763205 86.8562 0.767476C87.2679 0.825128 87.2679 0.826201 87.4072 0.813389C87.4738 0.806984 87.5383 0.801645 87.5323 0.639366C87.6594 0.465343 87.8612 0.453602 88.057 0.427979C88.1842 0.411964 88.2386 0.458942 88.3214 0.483497C88.3496 0.492038 88.3799 0.509117 88.4062 0.506982C88.8401 0.47175 89.2719 0.434378 89.7038 0.394876C89.7765 0.38847 89.8289 0.394877 89.8855 0.422635C89.9581 0.457867 90.0389 0.480292 90.1539 0.46748C90.384 0.441857 90.6181 0.425846 90.8522 0.404494C90.9712 0.393818 90.9713 0.393807 91.2114 0.459999C91.2377 0.467473 91.2719 0.476014 91.3002 0.473879C91.5343 0.45573 91.7664 0.433316 91.9985 0.414099C92.0631 0.408761 92.1216 0.423706 92.1721 0.452532C92.2225 0.481358 92.2831 0.496303 92.3457 0.490965C92.5798 0.471748 92.8119 0.450402 93.0439 0.431185C93.0722 0.429049 93.1065 0.436522 93.1327 0.443996C93.379 0.510188 93.379 0.510177 93.492 0.499501C93.6575 0.483487 93.827 0.476022 93.9905 0.454669C94.1499 0.433317 94.2326 0.495234 94.3416 0.529398C94.6403 0.504842 94.941 0.484563 95.2377 0.454669C95.3588 0.441858 95.4234 0.477086 95.5041 0.504844C95.5324 0.514453 95.5606 0.53474 95.5868 0.533672C95.6877 0.529402 95.7867 0.51766 95.8856 0.509119C95.9845 0.500578 96.0854 0.492038 96.1843 0.483497C96.2973 0.514458 96.3719 0.587056 96.5334 0.5625C96.6303 0.547554 96.7332 0.544351 96.8321 0.53581C96.931 0.527269 97.0319 0.518729 97.1308 0.510188C97.1974 0.50485 97.266 0.501642 97.3306 0.492033C97.4496 0.476019 97.5082 0.528339 97.5929 0.551827C97.6212 0.5593 97.6535 0.572103 97.6797 0.569968C97.8795 0.555021 98.0813 0.542211 98.2771 0.517655C98.4285 0.498438 98.5314 0.530471 98.6384 0.575311C98.6606 0.58492 98.6989 0.590257 98.7271 0.588122C98.9613 0.569973 99.1933 0.547546 99.4254 0.528329C99.488 0.522991 99.5486 0.540072 99.599 0.567831C99.6515 0.596656 99.71 0.610546 99.7746 0.605208C100.007 0.585991 100.241 0.564632 100.473 0.545415C100.501 0.543279 100.535 0.551822 100.562 0.560363C100.788 0.626556 100.788 0.627624 100.921 0.614813C100.953 0.61161 100.988 0.609466 101.02 0.606264C101.185 0.591317 101.357 0.585986 101.518 0.560363C101.704 0.531537 101.839 0.567838 101.97 0.628692C102.136 0.615881 102.305 0.608406 102.467 0.587054C102.588 0.571039 102.653 0.611607 102.733 0.638297C102.762 0.647906 102.792 0.667123 102.816 0.664988C103.05 0.646838 103.284 0.63083 103.514 0.604139C103.639 0.589192 103.694 0.637227 103.779 0.661782C103.807 0.670323 103.837 0.685278 103.863 0.683142C103.997 0.674601 104.13 0.661784 104.263 0.65004C104.418 0.636161 104.418 0.637227 104.624 0.702352C104.721 0.733313 104.818 0.708757 104.913 0.701284C105.014 0.692743 105.109 0.686339 105.189 0.730112C105.24 0.75787 105.3 0.774952 105.363 0.770682C105.496 0.761073 105.631 0.751469 105.763 0.735455C105.868 0.722643 105.958 0.73118 106.035 0.770682C106.089 0.79844 106.146 0.812328 106.213 0.805922C106.511 0.780299 106.812 0.753598 107.111 0.729043C107.137 0.726908 107.173 0.73652 107.197 0.746129C107.254 0.765346 107.308 0.786694 107.363 0.808046C107.494 0.798437 107.629 0.794178 107.759 0.779231C107.896 0.764284 108.021 0.758945 108.128 0.817664C108.15 0.830476 108.182 0.848615 108.209 0.847548C108.309 0.843277 108.408 0.832604 108.507 0.824063C108.606 0.815522 108.707 0.806982 108.806 0.798441C108.921 0.825132 108.994 0.902 109.155 0.877444C109.252 0.862498 109.355 0.859295 109.454 0.850754C109.553 0.842213 109.654 0.832605 109.753 0.825132C109.785 0.822996 109.821 0.817655 109.849 0.821926C109.88 0.826196 109.906 0.841146 109.932 0.851822C110.013 0.882783 110.088 0.913748 110.203 0.895599C110.299 0.880652 110.402 0.877448 110.501 0.867839C110.636 0.856095 110.636 0.856098 110.861 0.923358C110.951 0.951116 111.054 0.914818 111.141 0.938306C111.2 0.954321 111.25 0.981005 111.307 0.999155C111.331 1.00663 111.369 1.00983 111.397 1.00769C111.531 0.998083 111.666 0.988479 111.797 0.972464C111.904 0.959653 111.993 0.972463 112.067 1.0109C112.122 1.03866 112.176 1.05041 112.245 1.044C112.578 1.01411 112.911 0.988475 113.242 0.955379C113.355 0.943635 113.446 0.961789 113.508 1.00022C113.615 1.06642 113.767 0.988481 113.878 1.04186C113.946 1.07496 114.015 1.1134 114.14 1.09738C114.37 1.06962 114.604 1.05467 114.836 1.03545C114.919 1.06428 115.002 1.09311 115.087 1.12193C115.22 1.11019 115.353 1.09844 115.486 1.08776C115.585 1.07922 115.686 1.06961 115.785 1.06214C115.817 1.06001 115.851 1.05573 115.882 1.06107C115.912 1.06641 115.936 1.08029 115.965 1.09097C116.104 1.14328 116.104 1.14436 116.334 1.123C116.433 1.11339 116.528 1.10699 116.61 1.14969C116.687 1.1892 116.778 1.19666 116.883 1.18492C117.081 1.16357 117.28 1.14755 117.482 1.13261C117.545 1.12727 117.603 1.14542 117.656 1.17318C117.734 1.21695 117.831 1.21268 117.93 1.20094C118.061 1.18599 118.191 1.17105 118.302 1.23083C118.324 1.24365 118.358 1.26179 118.382 1.26072C118.548 1.25218 118.715 1.24578 118.877 1.22549C119.038 1.20521 119.117 1.2714 119.228 1.30343C119.393 1.28955 119.561 1.27567 119.726 1.26179C119.759 1.25858 119.797 1.24898 119.825 1.25432C119.944 1.27674 120.013 1.35681 120.176 1.33225C120.271 1.31837 120.374 1.31411 120.473 1.31091C120.499 1.30984 120.534 1.32798 120.552 1.34186C120.562 1.34933 120.552 1.36961 120.54 1.38029C120.503 1.41018 120.459 1.43795 120.427 1.46891C120.423 1.47318 120.461 1.49239 120.483 1.50093C120.538 1.52015 120.6 1.51695 120.673 1.50841C120.735 1.50094 120.8 1.51589 120.844 1.54792C120.863 1.56073 120.857 1.58208 120.818 1.65254C120.818 1.70485 120.861 1.68136 120.875 1.6472C120.897 1.59809 120.855 1.58207 120.774 1.60876C120.717 1.62798 120.689 1.65574 120.703 1.67816C120.711 1.68991 120.75 1.70485 120.818 1.65254C120.996 1.58848 121.129 1.57675 121.262 1.565C121.297 1.5618 121.337 1.55111 121.361 1.55752C121.448 1.58314 121.529 1.61411 121.613 1.64294C121.71 1.63653 121.801 1.62051 121.896 1.66215C122.029 1.72086 122.035 1.71553 122.164 1.70378C122.231 1.69738 122.298 1.69205 122.364 1.68671C122.431 1.68137 122.483 1.69738 122.542 1.72194C122.661 1.77212 122.671 1.77211 122.75 1.70378C122.796 1.66215 122.828 1.64827 122.887 1.66749C123.081 1.73261 123.083 1.73688 123.248 1.71766C123.385 1.70165 123.515 1.69738 123.615 1.75823C123.684 1.80094 123.706 1.79133 123.761 1.74649C123.906 1.62799 123.973 1.63012 124.245 1.71553C124.372 1.7561 124.503 1.71233 124.633 1.70699C124.742 1.70272 124.818 1.72834 124.826 1.7956C124.832 1.83724 124.851 1.86713 124.923 1.88101C124.951 1.88635 124.986 1.89382 125.014 1.89169C125.182 1.87888 125.347 1.86393 125.515 1.84898C125.599 1.84151 125.646 1.79134 125.63 1.72514C125.611 1.65468 125.644 1.62905 125.765 1.60876C125.837 1.59702 125.896 1.59917 125.955 1.61838C126.019 1.63973 126.001 1.65895 125.944 1.69739C125.809 1.79134 125.825 1.84898 125.999 1.9141C126.059 1.93652 126.108 1.95682 126.122 1.98991C126.13 2.007 126.122 2.02941 126.14 2.04223C126.239 2.11376 126.376 2.15967 126.53 2.19383C126.677 2.16501 126.778 2.21304 126.891 2.25148C126.98 2.28137 127.085 2.25575 127.18 2.24508C127.287 2.23333 127.375 2.24187 127.452 2.28137C127.507 2.30913 127.563 2.32194 127.63 2.3166C127.763 2.30486 127.898 2.29739 128.029 2.2803C128.142 2.26536 128.227 2.28671 128.298 2.32301C128.386 2.36892 128.485 2.33795 128.578 2.34436C128.703 2.35183 128.766 2.44685 128.929 2.42122C129.026 2.40628 129.127 2.40094 129.228 2.39667C129.254 2.3956 129.287 2.41376 129.309 2.42657C129.416 2.48529 129.541 2.48208 129.678 2.465C129.773 2.45326 129.866 2.44259 129.959 2.48316C130.112 2.55148 130.282 2.61127 130.443 2.67426C130.465 2.72338 130.449 2.78102 130.564 2.80984C130.625 2.82479 130.681 2.84722 130.728 2.87177C130.784 2.9006 130.836 2.90807 130.909 2.9006C131.04 2.88565 131.178 2.88244 131.307 2.86322C131.426 2.84614 131.5 2.88138 131.573 2.91448C131.632 2.94117 131.686 2.95398 131.757 2.93476C131.829 2.91661 131.882 2.92835 131.94 2.95717C132.023 2.99668 132.029 2.99241 132.304 3.00416C132.332 3.00522 132.366 3.02123 132.382 3.03511C132.391 3.04258 132.372 3.06395 132.358 3.07462C132.34 3.08744 132.312 3.10237 132.286 3.10558C131.987 3.13333 131.686 3.15789 131.387 3.18565C131.357 3.18885 131.325 3.19633 131.303 3.20701C131.279 3.21875 131.248 3.23476 131.248 3.2497C131.248 3.26038 131.289 3.27319 131.317 3.28067C131.406 3.30522 131.511 3.26786 131.597 3.29562C131.656 3.31377 131.704 3.33938 131.763 3.35646C131.787 3.36394 131.825 3.36287 131.856 3.36074C131.957 3.35327 132.056 3.34259 132.156 3.33619C132.185 3.33512 132.217 3.3458 132.243 3.35434C132.437 3.4184 132.437 3.4184 132.604 3.40452C132.671 3.39918 132.742 3.38316 132.804 3.38957C132.865 3.39597 132.917 3.4248 132.972 3.44295C133.085 3.48138 133.192 3.51875 133.2 3.60202C133.204 3.63405 133.27 3.66181 133.337 3.66394C133.402 3.66608 133.47 3.65434 133.537 3.64794C133.694 3.63513 133.694 3.63512 133.898 3.70025C133.955 3.7184 134.015 3.72053 134.088 3.70985C134.116 3.70558 134.15 3.70986 134.181 3.7152C134.28 3.73121 134.28 3.75149 134.215 3.78993C134.124 3.84651 134.132 3.85185 134.386 3.8999C134.483 3.91804 134.558 3.95221 134.639 3.9821C134.77 4.03015 134.768 4.03014 134.681 4.09313C134.661 4.10701 134.643 4.12196 134.623 4.1369C134.564 4.17854 134.518 4.22338 134.397 4.22765C134.263 4.23192 134.13 4.24901 133.997 4.26075C133.868 4.2725 133.834 4.29811 133.846 4.37071C133.86 4.45825 133.886 4.46786 134.118 4.4668C134.185 4.4668 134.243 4.47534 134.294 4.50416C134.269 4.53833 134.225 4.56502 134.16 4.57142C133.995 4.58744 133.827 4.60132 133.662 4.6152C133.529 4.62694 133.396 4.63868 133.262 4.65043C133.18 4.6579 133.127 4.71342 133.149 4.77534C133.161 4.81057 133.172 4.8458 133.182 4.88104C133.204 4.9515 133.246 4.96965 133.381 4.96645C133.416 4.96538 133.448 4.95684 133.48 4.95897C133.612 4.96644 133.674 5.05505 133.831 5.0369C133.963 5.02196 134.1 5.01876 134.229 4.99954C134.348 4.98246 134.415 5.0209 134.497 5.04973C134.526 5.05934 134.556 5.07961 134.58 5.07854C134.748 5.0668 134.915 5.05507 135.079 5.03478C135.155 5.02624 135.202 5.03264 135.262 5.05827C135.408 5.12019 135.412 5.11698 135.628 5.09777C135.785 5.08282 135.787 5.08495 135.989 5.15008C136.045 5.16823 136.106 5.16823 136.179 5.15968C136.274 5.14901 136.372 5.13193 136.471 5.14794C136.502 5.15221 136.54 5.16503 136.55 5.17891C136.556 5.18852 136.528 5.212 136.504 5.21948C136.326 5.27499 136.118 5.26539 135.924 5.28781C135.864 5.29421 135.803 5.27393 135.753 5.2451C135.7 5.21627 135.644 5.20453 135.575 5.20987C135.442 5.22162 135.307 5.22909 135.176 5.24617C135.063 5.26111 134.984 5.23656 134.905 5.20346C134.879 5.19278 134.849 5.1725 134.822 5.17356C134.524 5.19492 134.223 5.21627 133.926 5.24617C133.807 5.25898 133.739 5.22482 133.658 5.19599C133.63 5.18638 133.601 5.1661 133.575 5.16716C133.474 5.17144 133.375 5.18318 133.275 5.19172C132.907 5.22375 132.542 5.25578 132.175 5.28567C132.15 5.2878 132.12 5.26538 132.092 5.25577C132.037 5.23656 131.981 5.2184 131.924 5.20025C131.823 5.2088 131.725 5.21947 131.624 5.22588C131.551 5.23015 131.486 5.2451 131.476 5.28567C131.47 5.31236 131.537 5.33691 131.607 5.33478C131.676 5.33264 131.745 5.31983 131.801 5.33371C132.082 5.40204 132.082 5.40311 132.257 5.38923C132.411 5.37641 132.395 5.36573 132.53 5.42445C132.588 5.45008 132.641 5.46503 132.707 5.45862C132.873 5.44368 133.04 5.42873 133.208 5.41592C133.234 5.41378 133.268 5.42446 133.295 5.433C133.492 5.49706 133.492 5.49919 133.656 5.48318C133.87 5.46396 133.878 5.45862 134.021 5.52375C134.12 5.56859 134.211 5.53763 134.306 5.53549C134.415 5.57713 134.534 5.6145 134.633 5.66148C134.75 5.71699 134.873 5.70737 135.006 5.69136C135.105 5.67962 135.202 5.67535 135.283 5.71912C135.359 5.75969 135.452 5.76397 135.557 5.75329C135.652 5.74368 135.749 5.72339 135.848 5.74688C135.874 5.75328 135.914 5.7693 135.912 5.77891C135.91 5.79386 135.884 5.81521 135.858 5.82162C135.672 5.86539 135.468 5.86432 135.272 5.88461C135.246 5.88781 135.212 5.87606 135.186 5.86752C135.129 5.8483 135.075 5.82589 135.02 5.8056C134.921 5.81201 134.82 5.81414 134.724 5.82695C134.649 5.83656 134.592 5.8355 134.538 5.80988C134.487 5.78639 134.433 5.75756 134.372 5.75008C134.312 5.74261 134.241 5.75863 134.175 5.76503C134.108 5.77144 134.031 5.76823 133.979 5.78531C133.926 5.80239 133.894 5.83976 133.86 5.86966C133.821 5.90275 133.769 5.91344 133.692 5.91664C133.622 5.91984 133.565 5.91557 133.513 5.88567C133.49 5.87286 133.46 5.86325 133.43 5.85471C133.402 5.84724 133.369 5.83549 133.343 5.83762C133.042 5.86218 132.744 5.88888 132.443 5.9145C132.294 5.92731 132.296 5.9273 131.985 5.86431C131.957 5.85898 131.922 5.8515 131.894 5.85364C131.727 5.86645 131.561 5.8814 131.394 5.89635C131.224 5.91129 131.226 5.90916 130.937 5.8419C130.885 5.82909 130.808 5.84617 130.746 5.84404C130.615 5.8387 130.55 5.74902 130.397 5.7661C130.265 5.78105 130.128 5.78425 129.997 5.80346C129.878 5.82055 129.809 5.78318 129.729 5.75436C129.7 5.74475 129.67 5.7234 129.646 5.72553C129.345 5.74902 129.046 5.77571 128.647 5.77891C128.548 5.77891 128.592 5.80133 128.657 5.80881C128.75 5.82055 128.78 5.79813 128.73 5.75543C128.693 5.72553 128.641 5.71058 128.598 5.71805C128.576 5.72232 128.548 5.74261 128.647 5.77891C128.752 5.81948 128.746 5.8419 128.764 5.85471C128.808 5.88567 128.871 5.89848 128.935 5.89421C129.036 5.88674 129.135 5.87606 129.236 5.86966C129.264 5.86752 129.299 5.875 129.325 5.88354C129.547 5.94973 129.549 5.954 129.785 5.92838C129.86 5.92091 129.914 5.92091 129.973 5.94119C130.053 5.96895 130.112 6.01592 130.235 6.00097C130.399 5.98069 130.566 5.96895 130.734 5.95721C130.76 5.95507 130.788 5.97429 130.818 5.98283C130.901 6.00845 130.962 6.0565 131.085 6.03621C131.18 6.0202 131.283 6.01592 131.383 6.01272C131.41 6.01165 131.45 6.02873 131.462 6.04261C131.486 6.06717 131.456 6.096 131.387 6.11628C131.359 6.12483 131.321 6.12269 131.289 6.12589C131.155 6.13763 131.022 6.15044 130.889 6.16005C130.818 6.16539 130.752 6.18141 130.744 6.22091C130.738 6.2476 130.81 6.27108 130.879 6.26895C130.98 6.26574 131.081 6.2572 131.178 6.24333C131.349 6.21984 131.498 6.22624 131.638 6.2935C131.737 6.34048 131.731 6.3234 131.836 6.46219C131.862 6.49743 131.94 6.50062 132.009 6.49849C132.175 6.49315 132.251 6.50917 132.237 6.54227C132.219 6.58284 132.16 6.59564 132.086 6.60098C131.953 6.60952 131.819 6.6234 131.686 6.63515C131.654 6.63835 131.618 6.64475 131.587 6.64262C131.557 6.64048 131.529 6.62767 131.503 6.61806C131.446 6.59778 131.398 6.56681 131.337 6.55934C131.276 6.55186 131.206 6.56788 131.139 6.57429C131.073 6.57962 131.002 6.59564 130.941 6.58817C130.881 6.58069 130.83 6.54867 130.776 6.52945C130.75 6.51985 130.717 6.50489 130.691 6.50596C130.558 6.5145 130.425 6.52838 130.292 6.53906C130.128 6.55294 130.128 6.55294 129.93 6.48675C129.874 6.46753 129.815 6.4686 129.741 6.47714C129.579 6.49422 129.577 6.49101 129.283 6.42909C129.254 6.42269 129.22 6.41521 129.192 6.41842C128.891 6.44297 128.592 6.46966 128.294 6.49528C128.037 6.5177 128.037 6.51771 127.896 6.62447C127.791 6.70348 127.789 6.70347 127.892 6.73977C127.975 6.76967 128.049 6.81344 128.14 6.82945C128.225 6.8444 128.33 6.79636 128.423 6.84547C128.469 6.87002 128.53 6.89672 128.588 6.90099C128.681 6.90632 128.78 6.87536 128.869 6.92233C128.913 6.94582 128.98 6.97039 129.036 6.97145C129.135 6.97359 129.236 6.9565 129.335 6.94902C129.365 6.94689 129.4 6.94689 129.428 6.95223C129.458 6.95864 129.484 6.97145 129.511 6.98213C129.591 7.01843 129.678 7.0355 129.783 7.01735C129.955 6.98746 130.108 7.00241 130.241 7.07073C130.259 7.08034 130.304 7.08142 130.332 7.07715C130.405 7.06647 130.467 7.0654 130.522 7.08568C130.544 7.09422 130.576 7.10916 130.572 7.11877C130.566 7.13479 130.542 7.15614 130.516 7.16148C130.326 7.19778 130.122 7.20206 129.926 7.22127C129.9 7.22341 129.868 7.20952 129.842 7.19991C129.785 7.1807 129.737 7.14867 129.676 7.1412C129.616 7.13373 129.545 7.14761 129.478 7.15294C129.412 7.15828 129.341 7.1743 129.281 7.16789C129.22 7.16042 129.163 7.13372 129.115 7.11024C129.058 7.08355 129.004 7.08035 128.929 7.09103C128.832 7.10491 128.732 7.10704 128.633 7.11451C128.578 7.09423 128.524 7.0718 128.467 7.05258C128.441 7.04297 128.409 7.03123 128.38 7.0323C128.247 7.04084 128.114 7.05365 127.981 7.06539C127.848 7.07713 127.848 7.07715 127.622 7.01095C127.595 7.00348 127.561 6.99494 127.533 6.99707C127.365 7.00989 127.2 7.02589 127.032 7.0387C126.968 7.04404 126.909 7.02909 126.857 7.00027C126.806 6.97144 126.746 6.95543 126.683 6.96077C126.417 6.98319 126.15 7.00454 125.884 7.03123C125.777 7.04191 125.686 7.0323 125.613 6.99387C125.529 6.9501 125.434 6.96077 125.335 6.96932C125.111 6.99067 125.109 6.98959 124.966 6.93514C124.937 6.92447 124.909 6.90418 124.883 6.90525C124.651 6.92126 124.417 6.93621 124.187 6.96183C124.066 6.97571 124.001 6.93835 123.92 6.91059C123.892 6.90098 123.862 6.8807 123.837 6.88283C123.67 6.89458 123.502 6.90526 123.339 6.92661C123.175 6.94796 123.113 6.84867 122.99 6.84974C122.822 6.85081 122.657 6.87537 122.491 6.89031C122.358 6.90206 122.225 6.9138 122.092 6.92554C121.959 6.93728 121.825 6.94689 121.692 6.96077C121.621 6.96824 121.569 6.95863 121.51 6.93194C121.436 6.89671 121.347 6.86896 121.266 6.83693C121.143 6.79102 121.143 6.79102 120.994 6.80383C120.962 6.80703 120.927 6.80916 120.895 6.81236C120.651 6.83585 120.651 6.83372 120.34 6.76646C120.326 6.76326 120.289 6.77501 120.275 6.78355C120.233 6.81131 120.195 6.84119 120.156 6.87002C120.102 6.85294 120.035 6.84333 119.999 6.81878C119.896 6.74938 119.734 6.8444 119.63 6.77607C119.591 6.75045 119.525 6.72802 119.464 6.72162C119.401 6.71521 119.331 6.73016 119.266 6.73657C119.099 6.75258 119.099 6.75152 118.955 6.84654C118.883 6.89351 118.778 6.88497 118.683 6.89564C118.584 6.90739 118.489 6.91379 118.406 6.87002C118.332 6.83052 118.241 6.82091 118.134 6.83372C118.003 6.84974 117.868 6.85934 117.734 6.86895C117.706 6.87109 117.672 6.86575 117.644 6.85935C117.335 6.79636 117.335 6.79529 117.185 6.80917C117.119 6.81558 117.05 6.8177 116.986 6.82731C116.877 6.84439 116.794 6.82198 116.715 6.78781C116.689 6.77714 116.659 6.75686 116.632 6.75793C116.499 6.76327 116.368 6.77287 116.237 6.78248C116.136 6.78995 116.035 6.79422 115.938 6.80917C115.777 6.83373 115.698 6.76432 115.587 6.73229C115.422 6.74617 115.254 6.75578 115.089 6.775C115.012 6.78354 114.961 6.78034 114.903 6.75472C114.828 6.72269 114.76 6.68639 114.639 6.70241C114.477 6.72376 114.308 6.73124 114.142 6.74405C114.031 6.71095 113.95 6.64368 113.791 6.66824C113.694 6.68318 113.591 6.68639 113.492 6.69493C113.359 6.70667 113.226 6.71736 113.093 6.73017C112.949 6.74298 112.951 6.73978 112.731 6.67679C112.604 6.63942 112.473 6.68106 112.344 6.68746C112.243 6.6928 112.193 6.74191 112.217 6.8049C112.241 6.86789 112.186 6.917 112.094 6.92554C111.862 6.94582 111.627 6.96717 111.395 6.98532C111.367 6.98745 111.333 6.97998 111.307 6.97251C111.058 6.90525 111.058 6.90633 110.947 6.91593C110.782 6.93195 110.612 6.94048 110.449 6.96077C110.336 6.97465 110.253 6.95223 110.18 6.91593C110.124 6.88818 110.071 6.88177 109.999 6.88817C109.2 6.95971 108.4 7.0259 107.603 7.09956C107.484 7.11024 107.415 7.07928 107.335 7.05046C107.306 7.04085 107.28 7.02056 107.252 7.02056C107.185 7.02056 107.119 7.03017 107.052 7.03658C106.753 7.0622 106.455 7.09316 106.154 7.11237C106.027 7.12091 105.993 7.17003 105.938 7.2106C105.896 7.24156 105.847 7.25437 105.773 7.25864C105.7 7.26291 105.648 7.25757 105.591 7.22981C105.518 7.19351 105.436 7.17109 105.323 7.18603C105.191 7.20312 105.058 7.2106 104.923 7.22234C104.854 7.22768 104.802 7.24689 104.78 7.28533C104.776 7.29173 104.818 7.30775 104.842 7.31736C104.923 7.34939 105 7.38676 105.09 7.40918C105.183 7.4316 105.284 7.40596 105.381 7.39956C105.415 7.39742 105.448 7.39102 105.48 7.39209C105.51 7.39316 105.547 7.3985 105.569 7.40811C105.674 7.45615 105.785 7.48925 105.93 7.46042C106.055 7.4743 106.12 7.56291 106.279 7.53942C106.376 7.52554 106.477 7.51914 106.578 7.5138C106.604 7.51273 106.632 7.53195 106.661 7.54156C106.741 7.56825 106.806 7.61095 106.927 7.5928C107.056 7.57359 107.193 7.57039 107.325 7.55544C107.397 7.5469 107.45 7.55437 107.506 7.58213C107.579 7.61736 107.662 7.64404 107.775 7.62696C107.872 7.61202 107.974 7.60881 108.073 7.5992C108.203 7.58746 108.203 7.58853 108.433 7.65472C108.459 7.66219 108.493 7.67074 108.521 7.6686C108.689 7.65579 108.854 7.63977 109.022 7.62696C109.087 7.62162 109.149 7.6355 109.193 7.66646C109.212 7.67928 109.206 7.70064 109.212 7.71879C108.879 7.74762 108.546 7.77217 108.215 7.8074C108.09 7.82128 108.033 7.7775 107.95 7.75295C107.922 7.74441 107.892 7.72626 107.866 7.72839C107.631 7.74654 107.399 7.76576 107.167 7.78924C107.095 7.79672 107.04 7.79244 106.986 7.76148C106.846 7.67928 106.677 7.72412 106.519 7.73586C106.398 7.7444 106.36 7.7775 106.374 7.84797C106.392 7.93124 106.465 7.95687 106.651 7.94192C106.717 7.93658 106.784 7.9291 106.85 7.92483C106.915 7.92056 106.973 7.93444 107.026 7.96327C107.076 7.99209 107.137 8.00704 107.199 8.00277C107.333 7.99316 107.468 7.98356 107.597 7.96754C107.704 7.95473 107.793 7.9654 107.868 8.00491C107.95 8.04868 108.047 8.03907 108.144 8.02946C108.37 8.00811 108.372 8.00918 108.513 8.06256C108.542 8.07324 108.57 8.09353 108.596 8.09246C108.828 8.07644 109.062 8.06256 109.29 8.03694C109.409 8.02413 109.478 8.05829 109.557 8.08605C109.585 8.09565 109.613 8.11701 109.639 8.11487C109.807 8.10313 109.975 8.09138 110.138 8.0711C110.215 8.06149 110.261 8.06789 110.324 8.09351C110.473 8.1565 110.477 8.15437 110.689 8.13408C110.754 8.12768 110.824 8.11594 110.885 8.12448C110.945 8.13302 110.994 8.16399 111.05 8.1832C111.076 8.19174 111.109 8.20348 111.137 8.20134C111.27 8.1928 111.403 8.18 111.537 8.16826C111.662 8.15651 111.662 8.15758 111.896 8.22377C111.991 8.25153 112.09 8.22804 112.184 8.2195C112.287 8.20989 112.38 8.2099 112.459 8.25153C112.538 8.29317 112.632 8.29103 112.733 8.28249C112.828 8.27394 112.925 8.25047 113.022 8.27929C113.244 8.34548 113.244 8.34654 113.381 8.33373C113.581 8.31558 113.779 8.2985 113.981 8.28249C114.007 8.28035 114.041 8.29317 114.067 8.30171C114.124 8.32093 114.172 8.35295 114.233 8.36042C114.293 8.36896 114.364 8.35615 114.429 8.34975C114.637 8.32946 114.651 8.32199 114.79 8.39245C114.907 8.45011 115.052 8.36683 115.161 8.43302C115.224 8.47039 115.309 8.50028 115.426 8.48213C115.522 8.46718 115.623 8.46291 115.724 8.45437C115.884 8.44049 115.884 8.44157 116.086 8.50563C116.112 8.51417 116.146 8.52484 116.172 8.5227C116.306 8.51416 116.441 8.50669 116.57 8.48747C116.721 8.46505 116.818 8.50563 116.931 8.54513C117.02 8.57609 117.125 8.55046 117.22 8.53979C117.323 8.52911 117.416 8.53231 117.492 8.57394C117.573 8.61665 117.668 8.61131 117.769 8.60277C117.864 8.5953 117.96 8.57074 118.057 8.60064C118.265 8.66683 118.265 8.66683 118.417 8.65402C118.55 8.64227 118.683 8.62947 118.816 8.62093C118.842 8.61879 118.875 8.63267 118.901 8.64227C118.957 8.66149 119.006 8.69353 119.066 8.701C119.127 8.70847 119.198 8.69459 119.264 8.68926C119.331 8.68392 119.401 8.6679 119.462 8.67431C119.523 8.68071 119.579 8.70741 119.628 8.7309C119.684 8.75865 119.736 8.76185 119.813 8.75117C119.91 8.73729 120.011 8.73409 120.11 8.72662C120.164 8.74691 120.221 8.76719 120.273 8.78961C120.328 8.81309 120.386 8.81096 120.461 8.80349C120.709 8.77786 120.711 8.78107 120.919 8.84726C121.014 8.87716 121.113 8.8526 121.208 8.84513C121.309 8.83658 121.403 8.83232 121.482 8.87502C121.559 8.91559 121.654 8.92092 121.755 8.90811C121.819 8.89957 121.888 8.89424 121.954 8.89104C121.985 8.88997 122.021 8.89424 122.043 8.90278C122.15 8.94762 122.255 8.98819 122.403 8.95937C122.532 8.96791 122.596 9.05545 122.752 9.03837C122.883 9.02342 123.02 9.02021 123.149 9.00099C123.268 8.98391 123.353 9.01382 123.414 9.05118C123.523 9.11738 123.676 9.0277 123.785 9.09282C123.848 9.13019 123.928 9.16008 124.049 9.14407C124.183 9.12698 124.225 9.1494 124.263 9.21666C124.285 9.25509 124.281 9.28606 124.241 9.31595C124.201 9.34691 124.156 9.34158 124.092 9.30635C124.017 9.26684 123.928 9.25936 123.821 9.2679C123.716 9.27644 123.652 9.22094 123.565 9.19958C123.478 9.17716 123.375 9.21453 123.284 9.1857C123.071 9.11844 123.071 9.11844 122.925 9.13125C122.826 9.1398 122.723 9.14407 122.627 9.15901C122.512 9.17716 122.437 9.14406 122.358 9.11417C122.33 9.10349 122.302 9.0832 122.277 9.08427C122.045 9.10029 121.811 9.11524 121.581 9.14193C121.46 9.15581 121.395 9.11737 121.315 9.09068C121.286 9.08108 121.256 9.06186 121.232 9.06399C121.032 9.07894 120.834 9.09816 120.635 9.11631C120.596 9.14513 120.554 9.17288 120.518 9.20385C120.479 9.23587 120.427 9.24976 120.35 9.24869C120.223 9.24869 120.098 9.29353 119.971 9.23695C119.839 9.1793 119.829 9.1825 119.702 9.19638C119.541 9.21453 119.369 9.21026 119.218 9.2519C119.192 9.25937 119.163 9.27964 119.163 9.29459C119.161 9.3042 119.204 9.31808 119.23 9.32662C119.319 9.35225 119.422 9.31488 119.51 9.34157C119.569 9.35866 119.617 9.38427 119.676 9.40242C119.7 9.4099 119.736 9.40883 119.769 9.40777C119.803 9.4067 119.835 9.39923 119.868 9.4003C119.898 9.40137 119.93 9.40776 119.954 9.41737C120.065 9.45794 120.183 9.49531 120.281 9.54336C120.378 9.59033 120.469 9.5583 120.566 9.55617C120.953 9.6309 120.953 9.63197 121.214 9.60848C121.278 9.60314 121.345 9.59674 121.412 9.59781C121.44 9.59781 121.466 9.61701 121.494 9.62769C121.575 9.65972 121.652 9.68855 121.765 9.67147C121.862 9.65652 121.965 9.65331 122.063 9.64371C122.197 9.63196 122.197 9.63196 122.423 9.69922C122.479 9.71631 122.54 9.71418 122.612 9.70564C122.675 9.69816 122.74 9.71418 122.784 9.74514C122.802 9.75795 122.796 9.7793 122.802 9.79745C122.602 9.81453 122.4 9.82628 122.207 9.8519C122.082 9.86792 122.025 9.82201 121.942 9.79745C121.914 9.78891 121.884 9.77076 121.858 9.7729C121.66 9.78891 121.462 9.80705 121.264 9.8284C121.24 9.83054 121.21 9.8551 121.208 9.87004C121.204 9.8978 121.254 9.92449 121.327 9.92342C121.424 9.92236 121.519 9.9042 121.605 9.94798C121.678 9.98641 121.769 10.0035 121.876 9.98642C121.94 9.97681 122.009 9.97681 122.074 9.96827C122.245 9.94265 122.4 9.94798 122.53 10.0206C122.629 10.0398 122.725 10.0217 122.82 10.012C122.891 10.0046 122.96 9.99709 123.01 10.0174C123.117 10.0601 123.222 10.1028 123.369 10.074C123.529 10.1039 123.65 10.1668 123.783 10.2181C123.846 10.2426 123.894 10.2565 123.967 10.2405C123.997 10.2341 124.033 10.2341 124.065 10.2309C124.132 10.2256 124.203 10.2095 124.263 10.216C124.324 10.2234 124.374 10.2544 124.429 10.2736C124.455 10.2832 124.485 10.2992 124.512 10.2982C124.612 10.2928 124.711 10.2821 124.81 10.2736C124.909 10.2661 125.008 10.2587 125.107 10.2512C125.19 10.2789 125.274 10.3067 125.357 10.3345C125.49 10.3227 125.624 10.311 125.755 10.3003C125.902 10.2875 125.902 10.2886 126.114 10.3547C126.209 10.3846 126.31 10.3654 126.401 10.3515C126.552 10.3291 126.653 10.3697 126.76 10.4124C126.782 10.4209 126.822 10.4263 126.849 10.422C126.954 10.4071 127.044 10.4188 127.121 10.4583C127.175 10.4861 127.23 10.4989 127.297 10.4935C127.529 10.4733 127.761 10.4519 127.993 10.4338C128.021 10.4316 128.053 10.4412 128.08 10.4498C128.286 10.5149 128.288 10.5181 128.439 10.501C128.574 10.4861 128.699 10.4797 128.806 10.5384C128.828 10.5512 128.863 10.5693 128.887 10.5683C129.052 10.5576 129.22 10.5459 129.383 10.5277C129.458 10.5192 129.511 10.5224 129.569 10.5469C129.644 10.5779 129.71 10.6153 129.833 10.6014C130.175 10.5619 130.177 10.5683 130.58 10.6419C130.608 10.6473 130.647 10.6387 130.679 10.6345C130.748 10.6238 130.798 10.6387 130.859 10.6633C130.994 10.7188 130.998 10.7156 131.127 10.7039C131.226 10.6943 131.329 10.6921 131.426 10.6761C131.575 10.6526 131.674 10.6943 131.785 10.7338C131.874 10.7647 131.977 10.7391 132.072 10.7295C132.175 10.7188 132.267 10.722 132.344 10.7626C132.397 10.7903 132.453 10.8053 132.52 10.8C132.752 10.7807 132.984 10.7594 133.216 10.7402C133.244 10.738 133.279 10.7466 133.305 10.754C133.535 10.8202 133.535 10.8234 133.763 10.7989C133.836 10.7914 133.896 10.7893 133.951 10.8117C134.003 10.833 134.06 10.8533 134.114 10.8736C134.213 10.8661 134.314 10.864 134.411 10.8512C134.485 10.8416 134.538 10.8459 134.596 10.8683C134.673 10.8971 134.738 10.9473 134.859 10.9227C134.921 10.911 134.994 10.9142 135.057 10.9035C135.131 10.8896 135.182 10.8982 135.24 10.9259C135.313 10.959 135.388 10.9932 135.505 10.9761C135.634 10.9569 135.771 10.9537 135.902 10.9387C135.975 10.9302 136.025 10.9387 136.084 10.9665C136.156 11.0017 136.239 11.0241 136.352 11.0103C136.582 10.9836 136.584 10.9889 136.808 11.0562C136.865 11.0733 136.925 11.0711 136.998 11.0626C137.061 11.0551 137.125 11.0711 137.17 11.1021C137.212 11.1362 137.208 11.1576 137.212 11.1757ZM119.228 1.54685C119.161 1.55218 119.095 1.55859 118.998 1.46571C118.992 1.44969 118.996 1.43048 118.982 1.4166C118.949 1.38777 118.899 1.36749 118.838 1.36429C118.729 1.36002 118.598 1.39631 118.6 1.42407C118.602 1.44756 118.637 1.46784 118.703 1.48705C118.731 1.49453 118.754 1.50734 118.78 1.51588C118.857 1.54044 118.917 1.58849 119.028 1.56393C119.018 1.53084 119.008 1.49774 119.028 1.56393C119.018 1.6045 119.048 1.63333 119.121 1.64507C119.141 1.64828 119.171 1.64614 119.188 1.63973C119.25 1.61624 119.26 1.58422 119.214 1.49988C119.206 1.51376 119.212 1.5383 119.23 1.54471C119.248 1.55112 119.292 1.54578 119.315 1.53831C119.371 1.51803 119.399 1.49133 119.385 1.46891C119.377 1.45717 119.339 1.44222 119.315 1.44222C119.272 1.44222 119.234 1.46571 119.228 1.54685ZM135.547 13.9281C135.4 13.9484 135.23 13.9409 135.083 13.9825C135.057 13.99 135.03 14.0092 135.028 14.0242C135.026 14.0338 135.067 14.0477 135.091 14.0551C135.145 14.0722 135.206 14.0669 135.277 14.0615C135.383 14.0541 135.446 14.1032 135.529 14.1277C135.555 14.1352 135.589 14.1405 135.618 14.1384C135.781 14.1256 135.943 14.1117 136.106 14.0968C136.134 14.0936 136.165 14.0861 136.189 14.0765C136.269 14.0455 136.261 14.0252 136.183 14.0018C136.096 13.9761 136.027 13.9334 135.939 13.9131C135.811 13.8843 135.682 13.9227 135.547 13.9281ZM124.086 14.7075C123.987 14.716 123.89 14.7245 123.791 14.7331C123.759 14.7363 123.724 14.7373 123.694 14.7416C123.632 14.7491 123.585 14.7715 123.555 14.8067C123.601 14.8345 123.658 14.8505 123.72 14.8473C123.819 14.8409 123.916 14.827 124.015 14.8238C124.122 14.8196 124.185 14.8676 124.267 14.8922C124.294 14.8996 124.326 14.9007 124.356 14.9018C124.505 14.906 124.596 14.8505 124.568 14.7726C124.548 14.7117 124.471 14.6754 124.378 14.6829C124.281 14.6904 124.183 14.6989 124.086 14.7075ZM136.237 12.3501C136.261 12.332 136.288 12.3192 136.3 12.3032C136.336 12.2487 136.322 12.2081 136.255 12.1654C136.175 12.1131 136.076 12.1484 135.985 12.1537C135.963 12.1548 135.938 12.1772 135.926 12.1911C135.918 12.2007 135.918 12.221 135.93 12.2263C136.029 12.269 136.134 12.3085 136.237 12.3501ZM118.729 9.19638C118.633 9.20492 118.534 9.21132 118.437 9.22307C118.413 9.22627 118.39 9.24655 118.376 9.26043C118.35 9.28606 118.378 9.32128 118.461 9.32449C118.556 9.32876 118.655 9.31061 118.754 9.30207C118.879 9.2914 118.953 9.25189 118.907 9.21773C118.863 9.18463 118.802 9.17823 118.729 9.19638ZM12.494 6.91487C12.5586 6.90953 12.6252 6.90525 12.6898 6.89778C12.7503 6.89031 12.7968 6.86682 12.8271 6.83159C12.7766 6.80383 12.7201 6.78888 12.6575 6.79209C12.5586 6.79849 12.4618 6.80703 12.3649 6.81771C12.3043 6.82411 12.2458 6.8476 12.2317 6.8839C12.2176 6.91166 12.3528 6.92768 12.494 6.91487ZM110.194 6.75045C110.221 6.76006 110.247 6.77928 110.273 6.77928C110.338 6.77928 110.404 6.77287 110.465 6.76219C110.491 6.75792 110.511 6.7387 110.523 6.72376C110.532 6.71415 110.53 6.69707 110.517 6.68853C110.459 6.63728 110.225 6.65543 110.186 6.71415C110.182 6.72483 110.192 6.7387 110.194 6.75045ZM103.827 0.904135C103.833 0.921217 103.835 0.938297 103.843 0.955379C103.859 0.987408 103.904 1.0109 103.968 1.02691C104.019 1.00022 104.045 0.970335 104.043 0.938306C104.041 0.921224 104.035 0.904131 104.027 0.887049C104.011 0.855021 103.966 0.831541 103.902 0.815527C103.851 0.84115 103.827 0.871039 103.827 0.904135ZM140.901 14.8932C140.883 14.9071 140.865 14.921 140.845 14.9338C140.899 14.9648 140.95 14.9744 140.988 14.9573C141.012 14.9466 141.026 14.9306 141.045 14.9167C140.99 14.8857 140.942 14.8772 140.901 14.8932ZM139.646 15.0384C139.672 15.048 139.696 15.0608 139.725 15.0672C139.771 15.0779 139.813 15.0598 139.846 15.0213C139.819 15.0117 139.795 14.9989 139.767 14.9925C139.721 14.9818 139.678 15 139.646 15.0384ZM140.441 14.843C140.427 14.8687 140.455 14.89 140.53 14.9082C140.548 14.8943 140.572 14.8815 140.584 14.8665C140.605 14.842 140.57 14.8196 140.498 14.8025C140.477 14.8153 140.459 14.8292 140.441 14.843ZM136.181 13.6921C136.167 13.7178 136.195 13.7391 136.269 13.7573C136.288 13.7434 136.312 13.7306 136.324 13.7156C136.344 13.6911 136.31 13.6687 136.237 13.6516C136.217 13.6644 136.199 13.6783 136.181 13.6921ZM130.376 6.13763C130.358 6.15151 130.34 6.16539 130.32 6.1782C130.374 6.20916 130.425 6.21877 130.463 6.20169C130.487 6.19101 130.501 6.175 130.52 6.16112C130.465 6.13016 130.417 6.12162 130.376 6.13763ZM124.816 2.12977C124.865 2.13724 124.905 2.1223 124.939 2.0828C124.913 2.07319 124.889 2.06037 124.861 2.05397C124.814 2.04329 124.772 2.06145 124.74 2.09988C124.766 2.11056 124.792 2.12016 124.816 2.12977ZM121.864 1.87888C121.846 1.89276 121.827 1.90664 121.807 1.91945C121.862 1.95041 121.912 1.96001 121.95 1.94293C121.975 1.93226 121.989 1.91624 122.007 1.90236C121.952 1.8714 121.904 1.86393 121.864 1.87888ZM101.841 0.903066C101.823 0.916945 101.805 0.930825 101.785 0.943636C101.839 0.974598 101.89 0.984203 101.928 0.967121C101.952 0.956445 101.966 0.94043 101.985 0.926551C101.93 0.89559 101.882 0.888119 101.841 0.903066ZM2.14476 9.58926C2.11852 9.57965 2.09231 9.57005 2.06809 9.55937C2.00956 9.5882 1.9914 9.61489 2.0237 9.63517C2.04388 9.64798 2.07413 9.65546 2.10036 9.66507C2.16091 9.63624 2.17503 9.61061 2.14476 9.58926Z" fill="#FFE492"/>
<path d="M35.9258 11.6716C35.6937 11.6919 35.4636 11.7175 35.2315 11.7304C35.1084 11.7368 35.064 11.7827 35.0136 11.8254C34.9732 11.8595 34.9268 11.8702 34.8521 11.8766C34.2224 11.9289 33.5948 11.9844 32.9671 12.0389C32.8884 12.025 32.8501 12.0026 32.8682 11.9759C32.8783 11.9599 32.9025 11.9375 32.9268 11.9353C33.3566 11.8958 33.7845 11.8553 34.2164 11.8243C34.3395 11.8158 34.3738 11.7688 34.4364 11.7304C34.4565 11.7175 34.4727 11.6983 34.4989 11.6909C34.5252 11.6823 34.5635 11.6834 34.5978 11.6812C35.2921 11.6204 35.9863 11.5606 36.6806 11.4998C36.7593 11.5136 36.7977 11.5361 36.7795 11.5627C36.7694 11.5788 36.7452 11.6012 36.721 11.6033C36.4546 11.6257 36.1901 11.6482 35.9258 11.6716Z" fill="#FFE492"/>
<path d="M162.659 17.3569C162.554 17.3697 162.42 17.3878 162.312 17.3259C162.259 17.296 162.203 17.2864 162.134 17.2928C162.035 17.3035 161.934 17.312 161.833 17.3184C161.807 17.3195 161.773 17.3078 161.746 17.2981C161.69 17.2789 161.641 17.2469 161.581 17.2384C161.52 17.2298 161.448 17.2533 161.385 17.248C161.302 17.2405 161.268 17.2117 161.29 17.185C161.302 17.17 161.327 17.1487 161.353 17.1455C161.726 17.106 161.728 17.106 161.833 17.1444C161.914 17.1743 161.989 17.2074 162.104 17.1892C162.201 17.1743 162.303 17.1711 162.402 17.1615C162.54 17.1487 162.54 17.1497 162.762 17.217C162.818 17.2341 162.879 17.233 162.951 17.2234C163.014 17.2159 163.074 17.233 163.125 17.2619C163.093 17.2982 163.046 17.3216 162.984 17.328C162.883 17.3387 162.784 17.3462 162.659 17.3569Z" fill="#FFE492"/>
<path d="M159.368 17.0278C159.622 17.0054 159.878 16.9862 160.133 16.9606C160.238 16.9499 160.32 16.9616 160.393 16.9979C160.472 17.0374 160.56 17.0342 160.657 17.0268C160.718 17.0225 160.776 17.0396 160.817 17.0695C160.833 17.0812 160.829 17.1026 160.835 17.1196C160.613 17.1389 160.389 17.1591 160.165 17.1762C160.139 17.1784 160.106 17.1677 160.082 17.1591C160.028 17.141 159.981 17.109 159.923 17.1026C159.798 17.0876 159.672 17.1164 159.545 17.1218C159.485 17.1239 159.426 17.1079 159.386 17.0791C159.37 17.0652 159.374 17.0449 159.368 17.0278Z" fill="#FFE492"/>
<path d="M66.9418 7.84868C67.2062 7.82519 67.4705 7.80278 67.7349 7.7793C67.8136 7.79424 67.85 7.81559 67.8338 7.84228C67.8237 7.8583 67.7995 7.88072 67.7753 7.88285C67.2465 7.9309 66.7178 7.9768 66.191 8.02271C66.1123 8.00776 66.076 7.98641 66.0921 7.95972C66.1022 7.9437 66.1265 7.92128 66.1507 7.91915C66.413 7.89459 66.6774 7.87217 66.9418 7.84868Z" fill="#FFE492"/>
<path d="M26.2705 13.781C26.1515 13.7831 26.0264 13.8226 25.8932 13.7927C25.8669 13.7874 25.8306 13.7703 25.8326 13.7607C25.8366 13.7447 25.8609 13.7244 25.8871 13.718C26.0021 13.6913 26.1454 13.6881 26.204 13.6134C26.2322 13.5749 26.2847 13.5621 26.3553 13.5546C26.43 13.5461 26.4825 13.5493 26.541 13.5717C26.6177 13.6005 26.6823 13.6539 26.8034 13.6262C26.8094 13.6433 26.8235 13.6625 26.8175 13.6785C26.8114 13.6945 26.7852 13.7094 26.761 13.7212C26.7388 13.7319 26.7085 13.7415 26.6802 13.7447C26.547 13.7575 26.4138 13.7682 26.2705 13.781Z" fill="#FFE492"/>
<path d="M131.562 13.5669C131.661 13.5583 131.764 13.5541 131.861 13.5391C131.938 13.5274 131.986 13.5348 132.047 13.5605C132.15 13.6053 132.156 13.601 132.408 13.6074C132.436 13.6085 132.471 13.6245 132.487 13.6384C132.497 13.6459 132.483 13.6662 132.471 13.6768C132.452 13.6907 132.426 13.7089 132.402 13.7089C132.242 13.7121 132.081 13.7751 131.926 13.7025C131.847 13.6662 131.76 13.6491 131.653 13.6651C131.589 13.6747 131.52 13.679 131.453 13.6832C131.389 13.6875 131.322 13.6758 131.282 13.6437C131.223 13.5968 131.258 13.5786 131.363 13.5818C131.429 13.5839 131.496 13.5722 131.562 13.5669Z" fill="#FFE492"/>
<path d="M167.968 20.9261C168.095 20.9154 168.222 20.9026 168.351 20.8941C168.378 20.8919 168.41 20.9037 168.434 20.9111C168.531 20.9432 168.517 20.9976 168.521 21.0456C168.523 21.0958 168.299 21.1364 168.204 21.1022C168.099 21.0638 168.004 21.02 167.859 21.0435C167.802 21.0521 167.736 21.0328 167.7 21.0019C167.645 20.957 167.675 20.9389 167.778 20.9421C167.839 20.9442 167.903 20.9325 167.968 20.9261Z" fill="#FFE492"/>
<path d="M103.6 6.3945C103.731 6.38276 103.862 6.36462 103.994 6.36355C104.07 6.36248 104.109 6.39771 104.09 6.42333C104.08 6.43934 104.056 6.46176 104.032 6.4639C103.77 6.48952 103.507 6.51088 103.245 6.53437C103.168 6.51942 103.13 6.497 103.148 6.47138C103.158 6.45537 103.182 6.43401 103.207 6.43081C103.338 6.41586 103.469 6.40625 103.6 6.3945Z" fill="#FFE492"/>
<path d="M165.415 17.4509C165.543 17.4402 165.672 17.4242 165.799 17.4188C165.865 17.4167 165.918 17.4412 165.926 17.469C165.93 17.4818 165.898 17.5042 165.871 17.5096C165.69 17.5459 165.494 17.5502 165.304 17.5683C165.244 17.5736 165.179 17.5566 165.143 17.5267C165.088 17.4808 165.119 17.4637 165.222 17.4669C165.286 17.4679 165.351 17.4562 165.415 17.4509Z" fill="#FFE492"/>
<path d="M134.709 13.7108C134.774 13.7055 134.84 13.6916 134.903 13.6959C134.969 13.7012 135.012 13.7322 135.032 13.7631C135.054 13.7984 135.052 13.8315 135.032 13.8614C135 13.9126 134.967 13.9105 134.893 13.8763C134.778 13.8229 134.77 13.8293 134.541 13.8315C134.515 13.8315 134.483 13.8154 134.463 13.8016C134.433 13.7802 134.449 13.7471 134.519 13.7279C134.572 13.714 134.644 13.7162 134.709 13.7108Z" fill="#FFE492"/>
<path d="M160.843 17.1006C160.938 17.092 161.033 17.0782 161.128 17.0782C161.195 17.0771 161.247 17.1016 161.253 17.1283C161.255 17.1411 161.225 17.1625 161.201 17.1689C161.086 17.1977 160.956 17.1999 160.831 17.2095C160.773 17.2137 160.708 17.1967 160.672 17.1668C160.617 17.1219 160.65 17.1016 160.749 17.108C160.779 17.1102 160.811 17.1038 160.843 17.1006Z" fill="#FFE492"/>
<path d="M145.576 15.7907C145.435 15.8035 145.302 15.7875 145.312 15.7597C145.326 15.7234 145.385 15.6999 145.445 15.6935C145.542 15.6829 145.639 15.6743 145.738 15.6679C145.8 15.6637 145.857 15.6797 145.907 15.7074C145.877 15.7416 145.831 15.7661 145.77 15.7736C145.708 15.7811 145.641 15.7854 145.576 15.7907Z" fill="#FFE492"/>
<path d="M144.871 15.6538C144.966 15.6453 145.061 15.6314 145.156 15.6314C145.222 15.6303 145.275 15.6549 145.281 15.6816C145.283 15.6944 145.253 15.7157 145.228 15.7221C145.113 15.751 144.984 15.7531 144.859 15.7627C144.801 15.767 144.736 15.7499 144.7 15.72C144.645 15.6751 144.677 15.6549 144.776 15.6613C144.807 15.6634 144.839 15.657 144.871 15.6538Z" fill="#FFE492"/>
<path d="M133.368 13.7022C133.463 13.6937 133.558 13.6798 133.652 13.6787C133.719 13.6777 133.771 13.7022 133.777 13.7289C133.779 13.7417 133.749 13.762 133.725 13.7695C133.61 13.7983 133.481 13.8005 133.356 13.8101C133.297 13.8143 133.233 13.7973 133.196 13.7674C133.142 13.7225 133.174 13.7022 133.273 13.7086C133.303 13.7108 133.336 13.7044 133.368 13.7022Z" fill="#FFE492"/>
<path d="M132.786 13.6391C132.887 13.6306 132.919 13.6252 132.952 13.6252C133.012 13.6252 133.075 13.6381 133.111 13.669C133.166 13.7139 133.133 13.7267 133.034 13.7288C132.907 13.7309 132.782 13.7534 132.655 13.7576C132.588 13.7598 132.536 13.7341 132.532 13.7075C132.53 13.6946 132.56 13.6722 132.584 13.668C132.669 13.6519 132.762 13.6423 132.786 13.6391Z" fill="#FFE492"/>
<path d="M144.326 7.35813C144.261 7.36347 144.192 7.37842 144.132 7.37308C144.051 7.36561 144.019 7.33678 144.039 7.31009C144.051 7.29515 144.073 7.27379 144.098 7.27059C144.227 7.25564 144.358 7.24603 144.487 7.23535C144.564 7.25137 144.598 7.27378 144.578 7.30048C144.566 7.31542 144.544 7.33571 144.519 7.33998C144.457 7.35065 144.39 7.35279 144.326 7.35813Z" fill="#FFE492"/>
<path d="M65.6765 7.97442C65.739 7.97335 65.7955 7.98723 65.8439 8.01392C65.8137 8.04809 65.7693 8.07051 65.7087 8.08012C65.6785 8.08439 65.6442 8.08758 65.6119 8.08865C65.5493 8.09079 65.4928 8.07584 65.4443 8.04915C65.4746 8.01499 65.521 7.99257 65.5795 7.98296C65.6098 7.97869 65.6442 7.97763 65.6765 7.97442Z" fill="#FFE492"/>
<path d="M164.479 17.4465C164.477 17.4155 164.6 17.3803 164.711 17.3814C164.769 17.3824 164.83 17.3974 164.864 17.4262C164.916 17.47 164.886 17.4871 164.787 17.4839C164.727 17.4817 164.662 17.4999 164.602 17.4967C164.533 17.4956 164.493 17.4721 164.479 17.4465Z" fill="#FFE492"/>
<path d="M135.096 13.84C135.094 13.8283 135.084 13.8144 135.09 13.8037C135.128 13.745 135.36 13.7268 135.421 13.7781C135.431 13.7877 135.435 13.8037 135.427 13.8133C135.415 13.8283 135.393 13.8475 135.368 13.8517C135.306 13.8624 135.241 13.8678 135.177 13.8688C135.148 13.8688 135.122 13.8507 135.096 13.84Z" fill="#FFE492"/>
<path d="M27.3312 13.6107C27.0931 13.6332 27.089 13.631 27.1314 13.5776C27.1698 13.5296 27.2404 13.5008 27.3433 13.5008C27.3736 13.5008 27.4059 13.4986 27.4321 13.5029C27.4604 13.5083 27.5008 13.5189 27.5068 13.5317C27.5189 13.5563 27.4846 13.583 27.4241 13.6011C27.3978 13.6097 27.3635 13.6075 27.3312 13.6107Z" fill="#FFE492"/>
<path d="M68.8276 7.82406C68.7569 7.84221 68.6964 7.83581 68.652 7.80164C68.6076 7.76748 68.6782 7.7269 68.8014 7.7173C68.8336 7.71516 68.868 7.70663 68.8982 7.7109C68.9285 7.7141 68.9588 7.7269 68.977 7.73971C69.0093 7.76106 68.9891 7.7899 68.9245 7.81445C68.8983 7.82406 68.8599 7.82192 68.8276 7.82406Z" fill="#FFE492"/>
<path d="M164.483 17.3667C164.501 17.3529 164.52 17.339 164.541 17.3262C164.617 17.3443 164.65 17.3657 164.63 17.3902C164.617 17.4052 164.593 17.418 164.574 17.4319C164.497 17.4137 164.466 17.3913 164.483 17.3667Z" fill="#FFE492"/>
<path d="M30.3071 25.7641C30.3071 25.7513 30.3354 25.731 30.3576 25.7268C30.4 25.7193 30.4524 25.7342 30.4887 25.7641C30.5392 25.8068 30.509 25.8292 30.4161 25.8175C30.3515 25.809 30.3071 25.7876 30.3071 25.7641Z" fill="#FFE492"/>
<path d="M135.849 12.8459C135.875 12.8555 135.902 12.8651 135.926 12.8757C135.892 12.9153 135.849 12.9323 135.805 12.9217C135.777 12.9152 135.752 12.9024 135.726 12.8928C135.76 12.8533 135.801 12.8384 135.849 12.8459Z" fill="#FFE492"/>
<path d="M135.142 12.7982C135.183 12.7822 135.231 12.7907 135.288 12.8217C135.27 12.8356 135.253 12.8516 135.231 12.8623C135.193 12.8793 135.142 12.8708 135.088 12.8388C135.104 12.8259 135.122 12.8121 135.142 12.7982Z" fill="#FFE492"/>
<path d="M134.571 12.845C134.598 12.8546 134.624 12.8642 134.648 12.8749C134.614 12.9144 134.573 12.9315 134.527 12.9208C134.499 12.9144 134.474 12.9016 134.448 12.892C134.483 12.8525 134.523 12.8365 134.571 12.845Z" fill="#FFE492"/>
<path d="M134.589 12.7887C134.62 12.81 134.604 12.8357 134.544 12.8645C134.517 12.8549 134.486 12.8474 134.465 12.8346C134.432 12.8143 134.448 12.7876 134.51 12.7588C134.535 12.7695 134.562 12.7791 134.589 12.7887Z" fill="#FFE492"/>
</svg>
