<svg width="101" height="210" viewBox="0 0 101 210" fill="none" xmlns="http://www.w3.org/2000/svg">
<g opacity="0.2">
<path d="M19.4202 209.925C17.8965 209.925 16.0763 209.28 13.6528 207.818C7.22062 203.853 0.624863 191.947 -6.33903 179.356C-10.1738 172.442 -14.1312 165.29 -18.1091 159.429C-23.9175 148.84 -33.7651 141.543 -43.2957 134.471C-50.2596 129.308 -56.8349 124.422 -61.9274 118.39L-61.9377 118.377C-65.7622 113.688 -67.5517 109.157 -67.4086 104.534C-67.1325 95.5125 -59.4936 87.4785 -50.638 78.1801L-49.7892 77.2845C-43.2241 70.3568 -34.982 61.0847 -23.0483 47.2425L-22.0359 46.1098C-11.36 34.151 1.9338 19.2683 19.1543 10.2465C53.6466 -10.6552 83.8336 5.53142 93.3642 23.0746C103.304 43.5811 102.445 65.352 90.092 106.325C77.1561 149.038 48.5029 182.056 36.7839 194.265C31.9879 198.295 28.9815 201.865 26.7931 204.472C24.0117 207.765 22.2017 209.925 19.4202 209.925ZM-61.0275 117.125C-56.0475 123.026 -49.5335 127.859 -42.6412 132.983C-32.9981 140.134 -23.0176 147.536 -17.0865 158.362C-13.0984 164.223 -9.12048 171.414 -5.27552 178.355C1.59634 190.762 8.08984 202.484 14.205 206.264C20.2485 209.885 21.6699 208.2 25.8933 203.195C28.1225 200.547 31.1801 196.912 36.0067 192.856C47.5826 180.779 76.0312 148.01 88.8546 105.68C101.034 65.2993 101.923 43.9235 92.2599 23.9965C83.0053 6.98018 53.5239 -8.71909 19.6861 11.7874C2.63939 20.7302 -10.5624 35.5075 -21.1667 47.3742L-22.1688 48.5069C-34.1128 62.3623 -42.3651 71.6475 -48.9507 78.5884L-49.7994 79.4839C-58.4097 88.5189 -65.8338 96.3291 -66.0894 104.574C-66.2121 108.696 -64.5555 112.792 -61.0275 117.125Z" fill="#CCCCCC"/>
<path d="M17.3449 197.992C15.2383 197.992 13.0091 197.123 9.94129 195.582L9.87993 195.556C3.98977 191.75 -0.673275 182.57 -5.6022 172.863C-8.96654 166.225 -12.4536 159.376 -16.6463 153.41C-22.5569 143.73 -29.9911 136.196 -37.1698 128.913C-41.9964 124.027 -46.5572 119.404 -50.5351 114.294L-50.6067 114.188C-58.7057 99.9774 -52.8973 93.7082 -42.3646 82.3157C-41.2193 81.0777 -40.0126 79.7738 -38.7548 78.3777C-36.2801 76.0202 -33.6418 73.3861 -30.8399 70.5939C-18.3949 58.1741 -1.33797 41.1709 22.7238 27.3682C52.1337 12.8675 74.8558 23.3512 84.3455 40.17C93.8557 57.7 90.1641 78.7991 79.4779 114.043C67.7692 149.683 46.3969 172.758 34.9131 185.151L33.6349 186.534C25.0962 194.7 21.4353 197.992 17.3449 197.992ZM10.4526 194.002C18.8277 198.19 20.2491 197.189 32.8168 185.204L34.0644 183.86C45.4561 171.559 66.6648 148.656 78.2508 113.424C88.7631 78.7728 92.4342 58.0687 83.2718 41.1841C74.0888 24.9053 51.9598 14.8035 23.2351 28.9619C-0.652827 42.6592 -17.6279 59.5965 -30.0321 71.9505C-32.834 74.7426 -35.4723 77.3767 -37.9265 79.7211C-39.1536 81.0777 -40.3603 82.3815 -41.5056 83.6327C-52.0486 95.0384 -56.8752 100.254 -49.5637 113.135C-45.6471 118.153 -41.1272 122.723 -36.3517 127.57C-29.1015 134.906 -21.6161 142.505 -15.6339 152.304C-11.4003 158.323 -7.88259 165.237 -4.48757 171.928C0.328867 181.411 4.88965 190.38 10.4526 194.002Z" fill="#CCCCCC"/>
<path d="M15.5471 188.036C12.8577 188.036 10.3626 186.798 7.25387 184.691C2.05907 180.661 -2.11314 172.324 -6.53076 163.513C-9.14861 158.271 -11.8687 152.858 -14.9774 147.892C-19.3234 140.095 -24.4773 133.431 -29.4472 126.977C-33.5273 121.683 -37.3825 116.691 -40.4196 111.542L-40.4605 111.463C-46.6166 98.1077 -40.256 91.878 -28.7007 80.5645L-28.5677 80.4328L-26.4305 78.5495C-14.2616 67.8682 2.40675 53.2357 25.2414 42.6334C52.197 31.557 69.3562 42.8442 75.8702 55.8566C82.834 69.7384 81.1263 88.3747 69.98 120.182C61.8606 142.348 48.6077 162.275 30.5998 179.409C23.6359 185.494 19.3921 188.036 15.5471 188.036ZM-39.3459 110.528C-36.3599 115.572 -32.5456 120.524 -28.5064 125.753C-23.4956 132.246 -18.3111 138.976 -13.9241 146.839C-10.7848 151.83 -8.05442 157.296 -5.41611 162.577C-1.09053 171.23 2.99986 179.396 7.90833 183.202C14.9847 188.023 18.5127 187.931 29.8328 178.013C47.6465 161.05 60.7562 141.347 68.7733 119.457C79.7049 88.2561 81.4433 70.094 74.7555 56.7654C67.9962 43.2656 50.203 34.1516 25.6606 44.227C3.01009 54.7503 -13.5765 69.3037 -25.684 79.9455L-27.903 81.9079C-39.5402 93.3005 -44.8679 98.516 -39.3459 110.528Z" fill="#CCCCCC"/>
<path d="M14.5799 178.974C11.5734 178.974 8.75108 177.644 5.60148 175.036L5.58102 175.023C0.836169 170.835 -2.98834 162.959 -7.03783 154.635C-8.90918 150.776 -10.8521 146.798 -12.9587 143.005C-15.7708 137.447 -18.8897 132.311 -21.9064 127.359C-25.6082 121.274 -29.1157 115.518 -31.4063 109.934C-35.4047 98.1465 -29.5554 91.9827 -19.4522 83.198C-9.04212 74.9005 7.04334 63.0734 26.759 56.093C45.5851 51.1014 59.6867 55.1052 66.5074 67.3538C73.8701 80.5507 72.0397 101.479 61.4864 124.777C50.4322 152.198 32.956 168.28 27.8634 172.547C22.4437 176.867 18.3635 178.974 14.5799 178.974ZM6.31729 173.6C12.2075 178.46 16.8296 179.33 27.1476 171.098C32.1583 166.897 49.4096 151.026 60.3207 123.948C70.608 101.228 72.4691 80.9721 65.4234 68.3548C58.9197 56.6857 45.2987 52.9321 27.0556 57.7657C7.54441 64.6802 -8.42856 76.4151 -18.7466 84.6467C-29.1464 93.6817 -33.6765 99.0553 -30.2304 109.21C-28.0113 114.597 -24.5447 120.286 -20.8736 126.318C-17.8365 131.31 -14.6971 136.46 -11.8747 142.057C-9.75793 145.85 -7.815 149.867 -5.93342 153.739C-1.94529 161.892 1.80764 169.61 6.31729 173.6Z" fill="#CCCCCC"/>
<path d="M14.0419 170.703C10.8514 170.703 7.91651 169.294 4.86917 166.476L4.78736 166.383C-6.88048 151.171 -20.6753 116.335 -23.3239 109.513L-23.3648 109.355C-25.4304 99.5824 -20.7674 93.8401 -11.4515 86.6621C-2.67761 80.3139 11.1786 71.9375 27.4175 68.0258C42.3678 64.9966 53.5653 69.0795 58.9646 79.5237C64.957 91.1269 63.1266 108.762 53.9539 127.912C45.8753 146.377 33.9723 159.666 25.5256 165.936C21.108 169.123 17.4267 170.703 14.0419 170.703ZM5.68725 165.132C11.5263 170.493 16.7313 170.308 24.861 164.447C33.1542 158.297 44.8425 145.231 52.8086 127.043C61.5825 108.723 63.464 91.3245 57.8602 80.472C52.7676 70.6072 42.0304 66.7746 27.6424 69.7117C11.5979 73.5838 -2.10494 81.8812 -10.7868 88.1504C-19.7039 95.0122 -23.9067 100.109 -22.107 108.841C-14.4988 128.439 -3.21957 153.489 5.68725 165.132Z" fill="#CCCCCC"/>
<path d="M13.4908 163.078C10.0753 163.078 7.11999 161.616 4.8805 158.784C-4.07746 147.602 -13.4035 124.014 -16.1543 109.829C-16.6043 106.55 -15.96 103.349 -14.2625 100.294C-9.02683 90.8769 6.48599 82.7507 27.2447 78.5624C38.9535 77.1005 47.6865 81.1439 51.8587 89.955C56.5831 99.9382 54.8856 114.465 47.2058 129.796C37.2151 149.196 25.2609 161.576 15.2292 162.946C14.6361 163.038 14.0532 163.078 13.4908 163.078ZM31.8055 79.9717C30.3943 79.9717 28.932 80.0639 27.4186 80.2615C7.04842 84.3707 -8.14739 92.2335 -13.1683 101.295C-14.6613 103.982 -15.2238 106.734 -14.8454 109.487C-12.1457 123.382 -2.98328 146.588 5.82129 157.572C8.14259 160.496 11.3536 161.774 15.0963 161.26C24.7394 159.943 36.3356 147.839 46.1014 128.874C53.3823 114.334 55.1208 100.123 50.7338 90.8506C47.3695 83.7516 40.7328 79.9717 31.8055 79.9717Z" fill="#CCCCCC"/>
<path d="M13.8065 155.834C10.6365 155.834 7.84478 154.516 5.66664 151.961C-2.1051 142.887 -9.29396 123.697 -9.703 110.909V110.883C-9.75413 99.0949 5.46212 89.4145 26.4663 87.8867C35.414 87.6102 42.0507 91.456 45.1696 98.7524C48.7487 107.116 47.2761 118.719 41.1303 130.599C33.5324 145.034 24.0223 154.411 15.6779 155.689C15.0336 155.781 14.4099 155.834 13.8065 155.834ZM-8.37362 110.856C-7.96458 123.263 -0.990461 141.886 6.56653 150.697C8.86738 153.397 11.9556 154.53 15.5143 153.99C23.4803 152.765 32.6428 143.664 40.0259 129.637C45.8854 118.311 47.3375 107.34 44.0038 99.5558C41.1303 92.852 34.9334 89.296 26.5174 89.5726C6.59721 91.0345 -8.41452 100.188 -8.37362 110.856Z" fill="#CCCCCC"/>
<path d="M14.2674 148.972C11.4962 148.972 9.02151 147.879 7.02744 145.732C0.0226467 138.238 -4.95741 123.065 -3.86324 112.582C-2.67702 102.519 10.0748 95.3018 25.1274 96.1315C31.7334 96.6189 36.601 100.122 38.8507 105.983C41.4276 112.7 40.2517 121.617 35.6091 130.428C30.1279 140.74 22.8982 147.602 16.2717 148.787C15.5866 148.919 14.9219 148.972 14.2674 148.972ZM22.7448 97.7779C9.38964 97.7779 -1.52148 104.139 -2.54407 112.832C-3.56667 122.617 1.3009 137.382 7.8762 144.428C10.0441 146.746 12.8767 147.668 16.0877 147.102C22.3562 145.982 29.2383 139.384 34.5149 129.466C38.8814 121.182 40.0267 112.898 37.6645 106.734C35.6397 101.452 31.1608 98.2915 25.0661 97.8306C24.2889 97.8042 23.5117 97.7779 22.7448 97.7779Z" fill="#CCCCCC"/>
<path d="M14.7965 142.413C12.5672 142.413 10.5425 141.583 8.84498 139.963C2.96504 134.34 -0.337948 123.026 1.48228 114.742C3.33318 106.55 12.9456 101.624 23.3454 103.521C27.9573 104.403 31.3421 107.353 32.876 111.831C34.6144 116.902 33.7555 123.329 30.5241 129.466C26.812 136.473 21.832 141.109 16.8621 142.176C16.1668 142.334 15.4714 142.413 14.7965 142.413ZM2.76052 115.216C1.10392 122.736 4.25352 133.444 9.63238 138.594C11.5446 140.424 13.9682 141.083 16.6474 140.503C21.198 139.516 25.9837 135.038 29.4401 128.518C32.4056 122.881 33.2135 117.06 31.6694 112.529C30.3298 108.604 27.3029 106.01 23.1613 105.22C13.5592 103.455 4.40691 107.946 2.76052 115.216Z" fill="#CCCCCC"/>
<path d="M15.3604 136.064C13.8163 136.064 12.3233 135.55 11.0143 134.444C6.63763 130.796 4.59243 123.051 6.44334 117.191C8.30446 111.356 14.9411 108.208 21.2506 110.184C24.165 111.093 26.292 113.318 27.243 116.427C28.286 119.851 27.7543 124.013 25.7909 127.832C23.081 133.074 19.0622 136.064 15.3604 136.064ZM11.7302 133.022C15.5036 136.169 21.3119 133.43 24.6865 126.897C26.4045 123.552 26.8953 119.956 26.0056 117.059C25.2182 114.477 23.4185 112.62 20.9335 111.843C15.2377 110.065 9.28617 112.752 7.67047 117.836C6.04453 122.986 7.86474 129.795 11.7302 133.022Z" fill="#CCCCCC"/>
<path d="M15.8323 129.835C14.9937 129.835 14.1757 129.585 13.4292 129.058C10.8727 127.254 9.83985 123.105 11.1386 119.799C12.4168 116.533 15.9243 114.966 18.941 116.309C20.3931 116.954 21.4566 118.245 21.9167 119.957C22.4076 121.762 22.1724 123.869 21.2623 125.726C19.9636 128.347 17.8672 129.835 15.8323 129.835ZM16.6504 117.534C14.7995 117.534 13.0508 118.68 12.3043 120.576C11.3328 123.065 12.11 126.2 14.0529 127.557C15.9857 128.926 18.716 127.688 20.1272 124.804C20.8328 123.368 21.0168 121.854 20.6487 120.51C20.3215 119.299 19.5545 118.377 18.491 117.903C17.8877 117.652 17.2639 117.534 16.6504 117.534Z" fill="#CCCCCC"/>
</g>
</svg>
